<?xml version="1.0" encoding="utf-8"?>
<!-- Generator: Adobe Illustrator 25.4.1, SVG Export Plug-In . SVG Version: 6.00 Build 0)  -->
<svg version="1.1" id="Calque_1" xmlns="http://www.w3.org/2000/svg" xmlns:xlink="http://www.w3.org/1999/xlink" x="0px" y="0px"
	 viewBox="0 0 128.1 143.2" style="enable-background:new 0 0 128.1 143.2;" xml:space="preserve">
<g>
	<path d="M46.2,40l-0.2,0.3l0,0l-1.3,1.3l0,0l0,0l-0.1,0.1l0,0l-0.2,0.2l0,0L44.3,42l0,0l0,0l-0.1,0.1c0,0-0.1,0.1-0.1,0.1l0,0
		l-0.3,0.3l-0.1,0.1l0,0l-0.1,0.1l0,0l0,0l-0.4,0.4l0,0l0,0l0,0l-0.2,0.2l0,0c-0.2,0.2-0.5,0.5-0.7,0.7l-0.3,0.3l-0.2,0.2l-0.1,0.1
		l-0.4,0.4l-0.3,0.3l-0.2,0.2l-0.5,0.3l-0.2,0.1l0,0l-0.5,0.3l-0.2,0.1c-0.3,0.2-0.6,0.4-0.9,0.5l0,0l-0.6,0.3l0,0l-0.4,0.2
		c-0.3,0.2-0.6,0.3-0.9,0.4l-0.8,0.3l-0.8,0.3l-0.2,0.1l-0.6,0.2l-1.2,0.4l-0.5,0.2h-0.1l0,0l-0.4,0.1H32l0,0l-0.5,0.4l0,0L30.9,50
		l-0.5,0.2l0,0l-0.2,0.1l-0.4,0.2l0,0l-0.3,0.1l0,0l-0.2,0.1l0,0l-0.1,0.1l0,0h0l0,0l-0.5,0.2L28.4,51l-0.6,0.3l0,0l-0.2,0.1l0,0
		l-0.4,0.2l0,0L27,51.6l0,0l-0.4,0.2h-0.1l-0.9,0.4l-0.8,0.3l-2.4,1.1h-0.1l-0.6,0.3c-0.4,0.2-0.9,0.4-1.3,0.5l0,0h-0.1l-0.3,0.1h0
		l-0.6,0.2l0,0c-0.2,0.1-0.5,0.2-0.7,0.2L18.2,55l-0.9,0.2l0,0c-1.1,0.3-2.2,0.6-3.2,1l0,0l-0.3,0.1l-0.3,0.2l-0.2,0.1L13,56.8
		c-0.4,0.2-0.8,0.5-1.1,0.8c-0.1,0.1-0.1,0.1-0.2,0.2l0,0c0,0.1-0.1,0.1-0.1,0.2l0,0c-0.1,0.3-0.2,0.7-0.3,1c0,0.1-0.1,0.2-0.1,0.2
		c0,0-0.1,0.1-0.1,0.1c-0.2,0.3-0.3,0.5-0.5,0.7l0,0c0.3,4.6,0.8,9.1,1.6,13.7c1.2,6.9,0.2,20.3,0.3,20.2c-0.3,3-0.7,6.1-1,9.2
		c-1.2,9.8-2.6,19.2-5.7,28.4c-0.5,0.5-1,1.1-1.4,1.7c-0.4,0.4-0.7,0.9-1,1.4c-2.4,1.9-3.2,5.3-2.7,8.3c0,0.1,0.1,0.2,0.3,0.2h0.5
		c0.1,0.1,0.3,0.1,0.4,0.1l0.3-0.1c0.1,0,0.2,0,0.2,0l0.4-0.2l0,0c0.5-0.1,0.9-0.3,1.3-0.6c10.5-5.2,20.6-12.4,27.4-21.2
		c3.7-4.8,5.6-10.7,6.8-16.5c0.6-3.1,1-6.3,1.2-9.5c0.2-3.2,1.8-17.1,3.2-20.5c1.6-3.7,3.7-7.3,5.1-11.1c2-5.2,3.8-12.2,1.1-17.9
		c0,0,0-0.1,0-0.1c-0.2-1.1-0.7-2.1-1.3-3c-0.5-0.8-0.1-2.4-0.1-2.7c0-0.3-0.1-0.6-0.2-0.9L46.2,40L46.2,40z M1.1,141.4
		c0,0.4,0.1,0.9,0.1,1.3c-0.1-0.1-0.1-0.2-0.1-0.3C1.1,142,1,141.7,1.1,141.4z"/>
	<path d="M30.2,0.3c-0.9-0.3-1.8-0.4-2.7-0.2c-0.3,0.1-0.6,0.1-0.9,0.2c-1,0.3-2.3,1-2.3,1.9c0,0.1,0.2,0.2,0.2,0.1
		c0.1,0,0.1-0.1,0.2-0.2c0,0.3,0.3,0.5,0.6,0.8c0.5,0.3,1,0.5,1.6,0.8c0.1,0.1,0.3,0.1,0.4,0.2c0.3,0.2,0.5,0.4,0.7,0.6l1,0.9
		c0.4,0.5,0.8,1,1.1,1.5c3.1,4.2,3.5,8,2.6,12.6c-0.4,2.2-1,4.4-1.6,6.5c-0.6,1.6-1,3.3-1.3,5c-2.7,0.1-5.4,1.1-8,1.3
		c-0.8,0.1-3.3-0.8-4.1-0.2c-0.3,0-0.5,0.1-0.7,0.3c-0.2-0.1-0.4,0.1-0.2,0.3l0.1,0.1c0,0.1,0,0.1,0,0.2c0,0,0.1,0.1,0.1,0s0,0,0,0
		c0.4,0.5,1,0.8,1.6,1.1c-4.2,1.6-5.7,9-6.5,12c-0.9,3.5-1.4,7-1.5,10.6c0.1-0.1,0.2-0.2,0.3-0.3l0.2-0.2l0,0l0.5-0.3l0,0
		c0.2-0.1,0.5-0.3,0.7-0.4l0.4-0.2l0.6-0.2c0.2-0.1,0.4-0.2,0.6-0.2l0.5-0.2l0,0h0.1l0,0c0,0,0,0,0.1,0l0.3-0.1l0.3-0.1h0.1
		c0.7-0.2,1.4-0.4,2.1-0.6h0.1l0,0l0.4-0.1l0.4-0.1l0.2-0.1l0.6-0.2l0.5-0.3h0.1l0.4-0.2h0.1c0.4-0.2,0.9-0.4,1.3-0.6L22,52l0.2-0.1
		l1.5-0.6l2-0.9c0.2-0.1,0.3-0.1,0.4-0.2l0,0c0.3-0.1,0.5-0.2,0.8-0.3l0,0l0.3-0.1l0.3-0.1l0.3-0.1l0,0l0.4-0.2l0,0l0.4-0.2l0,0
		L29,49l0.4-0.1l0,0l0.4-0.1l0,0l1.4-0.5l0,0l0.9-0.3c0.8-0.3,1.5-0.5,2.2-0.8l0,0l0,0l0.6-0.2l0.2-0.1l0.5-0.2l0.2-0.1l0.5-0.2
		l0.1,0l0,0l0.1-0.1l0,0c0.1-0.1,0.3-0.1,0.4-0.2l0,0l0.2-0.1l0.1,0l0.5-0.3c0.4-0.2,0.8-0.5,1.2-0.8l0,0c0.3-0.2,0.6-0.4,0.9-0.7
		h0.1l0,0L40,44l0.3-0.2l0.3-0.3h0l0,0l0.1-0.1l0.2-0.2l0.1-0.1l0,0l0.1-0.1l0.2-0.2l0,0L42,42l0.3-0.3l0.4-0.4l0,0l0,0l0,0l0.1-0.1
		c0.1-0.1,0.1-0.2,0.2-0.2l0,0c0.1-0.1,0.2-0.1,0.2-0.2l0,0c0.1-0.1,0.1,0,0.2-0.2l0,0l0,0l0,0c0,0,0.1-0.2,0.2-0.2l0,0
		c0.1-0.1,0.2-0.3,0.4-0.4l0,0c0.3-0.1,0.3-0.3,0.5-0.6l0,0l0,0l0,0l0,0l0,0l0,0l0,0c0.1-0.1,0.2-0.2,0.2-0.2l0,0l0,0l0,0l0.8-0.8
		l0,0c0,0,0.2-0.3,0.4-0.4c-0.7-0.7-1.6-1.3-2.5-1.7c-1.5-0.8-3-1.5-4.7-2.2l0,0c0,0-0.2-6-0.8-8.5c0.3-3.2,0.2-6.5-0.2-9.7
		c-0.6-5.6-2.9-11-6.6-15.2C30.9,0.2,30.5,0.2,30.2,0.3z"/>
</g>
<g>
	<path d="M124.1,40l-0.2,0.3l0,0l-1.3,1.3l0,0l0,0l-0.1,0.1l0,0l-0.2,0.2l0,0l-0.1,0.1l0,0l0,0l-0.1,0.1c0,0-0.1,0.1-0.1,0.1l0,0
		l-0.3,0.3c0,0-0.1,0.1-0.1,0.1l0,0l-0.1,0.1l0,0l0,0l-0.4,0.4l0,0l0,0l0,0l-0.2,0.2l0,0c-0.2,0.2-0.4,0.5-0.7,0.7s-0.2,0.2-0.3,0.3
		l-0.2,0.2l-0.1,0.1l-0.4,0.4l-0.3,0.3l-0.2,0.2l-0.4,0.3l-0.2,0.1l0,0l-0.5,0.3l-0.2,0.1c-0.3,0.2-0.6,0.4-0.9,0.5l0,0l-0.6,0.3
		l0,0l-0.4,0.2c-0.3,0.2-0.6,0.3-0.9,0.4l-0.8,0.3l-0.8,0.3l-0.2,0.1l-0.6,0.2l-1.2,0.4l-0.6,0.2h-0.1l0,0l-0.4,0.1h-0.1l0,0
		l-0.4,0.4l0,0l-0.7,0.2l-0.4,0.2l0,0l-0.2,0.1l-0.4,0.2l0,0l-0.3,0.1l0,0l-0.2,0.1l0,0l-0.2,0.1l0,0l0,0l0,0l-0.5,0.2l-0.2,0.1
		l-0.7,0.3l0,0l-0.2,0.1l0,0l-0.4,0.2l0,0l-0.2,0.1l0,0l-0.3,0.2h-0.1l-0.8,0.4l-0.8,0.3l-2.4,1.1h-0.1l-0.6,0.3
		c-0.4,0.2-0.9,0.4-1.3,0.5l0,0h-0.1L98,54.5l0,0l-0.7,0.2l0,0c-0.2,0.1-0.5,0.2-0.7,0.2L96.2,55l-0.9,0.2l0,0
		c-1.1,0.3-2.2,0.6-3.2,1l0,0l-0.3,0.1l-0.4,0.2l-0.2,0.1l-0.3,0.2c-0.4,0.2-0.8,0.5-1.1,0.8c-0.1,0.1-0.1,0.1-0.2,0.2l0,0
		c0,0.1-0.1,0.1-0.1,0.2l0,0c-0.1,0.3-0.2,0.7-0.3,1c0,0.1-0.1,0.2-0.1,0.2c0,0-0.1,0.1-0.1,0.1c-0.2,0.3-0.3,0.5-0.5,0.7l0,0
		c0.3,4.6,0.8,9.1,1.6,13.7c1.2,6.9,0.2,20.3,0.3,20.2c-0.3,3-0.7,6.1-1,9.2c-1.1,9.7-2.5,19.1-5.6,28.3c-0.5,0.5-1,1.1-1.4,1.7
		c-0.4,0.4-0.7,0.9-1,1.4c-2.4,1.9-3.2,5.4-2.7,8.3c0,0.1,0.1,0.2,0.3,0.2h0.5c0.1,0.1,0.3,0.1,0.4,0.1l0.3-0.1c0.1,0,0.2,0,0.2,0
		l0.4-0.2l0,0c0.5-0.1,0.9-0.3,1.3-0.6c10.4-5.1,20.6-12.3,27.3-21.1c3.7-4.8,5.6-10.7,6.8-16.5c0.6-3.1,1-6.3,1.2-9.5
		c0.2-3.2,1.8-17.1,3.2-20.5c1.6-3.7,3.7-7.3,5.1-11.1c1.9-5.2,3.8-12.2,1.1-17.9c0,0,0-0.1,0-0.1c-0.2-1.1-0.7-2.1-1.3-3
		c-0.5-0.8-0.1-2.4-0.1-2.7c0-0.3-0.1-0.6-0.2-0.9L124.1,40L124.1,40z M79,141.4c0,0.4,0.1,0.9,0.1,1.3c-0.1-0.1-0.1-0.2-0.1-0.3
		C79,142,78.9,141.7,79,141.4z"/>
	<path d="M108.1,0.3c-0.9-0.3-1.8-0.4-2.7-0.2c-0.3,0.1-0.6,0.1-0.9,0.2c-1,0.3-2.3,1-2.3,1.9c0,0.1,0.2,0.2,0.2,0.1
		c0.1,0,0.1-0.1,0.2-0.2c0,0.3,0.3,0.5,0.6,0.8c0.5,0.3,1,0.5,1.6,0.8c0.1,0.1,0.3,0.1,0.4,0.2c0.3,0.2,0.5,0.4,0.7,0.6l1,0.9
		c0.4,0.5,0.8,1,1.1,1.5c3.1,4.2,3.5,8,2.6,12.6c-0.4,2.2-1,4.4-1.6,6.5c-0.6,1.6-1,3.3-1.3,5c-2.7,0.1-5.4,1.1-8,1.3
		c-0.8,0.1-3.3-0.8-4.1-0.2c-0.3,0-0.5,0.1-0.7,0.3c-0.2-0.1-0.3,0.1-0.2,0.3l0.1,0.1c0,0.1,0,0.1,0,0.2c0,0,0.1,0.1,0.1,0s0,0,0,0
		c0.4,0.5,1,0.8,1.6,1.1c-4.2,1.6-5.7,9-6.5,12c-0.9,3.5-1.4,7-1.5,10.6c0.1-0.1,0.2-0.2,0.3-0.3l0.2-0.2l0,0l0.5-0.3l0,0
		c0.2-0.1,0.5-0.3,0.7-0.4l0.4-0.2l0.6-0.2c0.2-0.1,0.4-0.2,0.6-0.2l0.5-0.2l0,0c0,0,0.1,0,0.1,0l0,0c0,0,0,0,0.1,0l0.3-0.1l0.3-0.1
		l0,0c0.7-0.2,1.4-0.4,2.1-0.6h0.1l0,0l0.3-0.1l0.3-0.1l0.2-0.1l0.6-0.2l0.6-0.3h0.1l0.4-0.2H98c0.4-0.2,0.9-0.4,1.3-0.6l0.6-0.3
		l0.2-0.1l1.5-0.6l2-0.9c0.2-0.1,0.3-0.1,0.4-0.2l0,0c0.3-0.1,0.5-0.2,0.8-0.3l0,0l0.3-0.1l0.3-0.1l0.3-0.1l0,0l0.4-0.2l0,0l0.4-0.2
		l0,0l0.4-0.2l0.4-0.1l0,0l0.3-0.1l0,0l1.4-0.5l0,0l0.9-0.3c0.8-0.3,1.5-0.5,2.2-0.8l0,0l0,0l0.6-0.2l0.2-0.1l0.4-0.2l0.2-0.1
		l0.5-0.2l0.1,0l0,0l0.1-0.1l0,0c0.1-0.1,0.3-0.1,0.4-0.2l0,0l0.2-0.1l0.1,0l0.5-0.3c0.4-0.2,0.8-0.5,1.2-0.8l0,0
		c0.3-0.2,0.6-0.4,0.9-0.7h0.1l0,0l0.1-0.1l0.3-0.2l0.3-0.3l0,0l0,0c0,0,0.1-0.1,0.1-0.1l0.2-0.2l0.1-0.1l0,0l0.1-0.1l0.2-0.2l0,0
		l0.7-0.8l0.3-0.3l0.4-0.4l0,0l0,0l0,0l0.1-0.1l0.2-0.2l0,0c0.1-0.1,0.2-0.1,0.2-0.2l0,0c0.1-0.1,0.1,0,0.2-0.2l0,0l0,0l0,0
		c0,0,0.1-0.2,0.2-0.2l0,0c0.1-0.1,0.2-0.3,0.4-0.4l0,0c0.3-0.1,0.3-0.3,0.6-0.6l0,0l0,0l0,0l0,0l0,0l0,0l0,0
		c0.1-0.1,0.2-0.2,0.2-0.2l0,0l0,0l0,0l0.8-0.8l0,0c0,0,0.2-0.3,0.4-0.4c-0.7-0.7-1.6-1.3-2.5-1.7c-1.5-0.8-3-1.5-4.7-2.2l0,0
		c0,0-0.2-6-0.8-8.5c0.3-3.2,0.2-6.5-0.2-9.7c-0.6-5.6-2.9-11-6.6-15.2C108.8,0.2,108.4,0.2,108.1,0.3z"/>
</g>
</svg>
