<?xml version="1.0" encoding="utf-8"?>
<!-- Generator: Adobe Illustrator 25.4.1, SVG Export Plug-In . SVG Version: 6.00 Build 0)  -->
<svg version="1.1" id="Calque_1" xmlns="http://www.w3.org/2000/svg" xmlns:xlink="http://www.w3.org/1999/xlink" x="0px" y="0px"
	 viewBox="0 0 164.5 125.8" style="enable-background:new 0 0 164.5 125.8;" xml:space="preserve">
<g id="Calque_2_00000023962920953671312770000012425224379979093905_">
	<g id="Calque_1-2">
		<path d="M80.9,44l-0.3,0.2l0,0L79,45l0,0l-0.1,0.1l0,0l-0.3,0.1l0,0l-0.1,0.1l0,0l-0.1,0.1l-0.1,0.1l0,0l-0.4,0.2l-0.1,0.1l0,0
			l-0.1,0.1l0,0L77,45.9l0,0L76.8,46l0,0l-0.9,0.4l-0.4,0.2l-0.3,0.1l-0.1,0.1L74.6,47l-0.4,0.2L74,47.3l-0.6,0.1h-0.2l0,0l-0.6,0.1
			h-0.2c-0.3,0.1-0.7,0.1-1,0.2l0,0l-0.7,0.1l0,0h-0.4c-0.3,0.1-0.7,0.1-1,0.1h-1.7h-0.2h-0.6h-1.3h-0.5h-0.1l0,0h-0.4l0,0L63.8,48
			l0,0l-0.7,0.1h-0.5h-0.2h-0.5h-0.3h-0.2l0,0l-0.1,0.1l0,0h-0.5l-0.3-0.1l-0.7,0.1l0,0h-0.2l0,0h-0.5l0,0l-0.2-0.1l0,0h-0.4h-0.1
			l-1,0.1h-0.8l-2.6,0.2h-0.1l-0.7,0.1c-0.5,0-0.9,0-1.4,0l0,0h-0.1h-0.3h-0.6l0,0c-0.2,0.1-0.5,0.1-0.7,0l-0.5-0.1l-0.9-0.1l0,0
			c-1.1-0.1-2.2-0.2-3.3-0.2h-0.3l-0.3,0.1h-0.2L44,48.2c-0.5,0.1-0.9,0.2-1.3,0.4l-0.3,0.1l0,0c0,0.1-0.1,0.1-0.2,0.2l0,0
			c-0.2,0.2-0.4,0.6-0.6,0.8c0,0.1-0.1,0.1-0.2,0.2l-0.1,0.1c-0.2,0.2-0.5,0.3-0.7,0.5l0,0c-1.3,4.5-2.4,9-3.2,13.6
			c-1.2,6.9-6.8,19.1-6.6,19.1c-1.3,2.7-2.8,5.5-4.1,8.3c-4.5,8.8-9,17.1-15.1,24.7c-0.7,0.3-1.3,0.7-1.9,1.1c-0.5,0.3-1,0.6-1.4,1
			c-3,0.9-4.9,3.8-5.4,6.8c0,0.1,0,0.2,0.2,0.3l0.5,0.2c0.1,0.1,0.2,0.2,0.3,0.2h0.3l0.2,0.1h0.4h0c0.5,0.1,1,0,1.4-0.1
			c11.6-1.3,23.6-4.6,33-10.5c5.1-3.2,8.9-8.1,12.1-13.2c1.6-2.7,3.1-5.6,4.4-8.5c1.3-2.9,7.6-15.4,10-18.2c2.8-2.9,6-5.6,8.6-8.7
			c3.7-4.2,7.8-10.2,7.2-16.4v-0.1c0.2-1.1,0.1-2.2-0.2-3.3c-0.2-0.9,0.7-2.3,0.8-2.6c0.1-0.3,0.1-0.6,0.1-0.9L80.9,44z M3.7,123.7
			c-0.1,0.4-0.2,0.9-0.3,1.3c-0.1-0.1-0.1-0.2,0-0.3C3.4,124.3,3.5,124,3.7,123.7z"/>
		<path d="M79.6,1.2c-0.7-0.6-1.6-1-2.5-1.1c-0.3,0-0.6-0.1-0.9-0.1c-1-0.1-2.5,0.2-2.8,1c0,0.1,0.1,0.3,0.2,0.2s0.1-0.1,0.2-0.1
			c-0.1,0.3,0.1,0.6,0.3,1c0.4,0.5,0.8,0.8,1.2,1.3c0.1,0.1,0.2,0.2,0.3,0.3c0.2,0.3,0.3,0.5,0.4,0.8l0.6,1.2
			c0.2,0.6,0.4,1.2,0.5,1.8c1.5,5,0.5,8.7-1.9,12.7c-1.1,1.9-2.4,3.8-3.7,5.5c-1.1,1.3-2.1,2.7-2.9,4.2c-2.6-0.8-5.5-0.8-8-1.5
			c-0.8-0.2-2.8-1.9-3.8-1.6c-0.2-0.1-0.5-0.1-0.8,0c-0.2-0.2-0.4,0-0.3,0.2l0.1,0.1l-0.1,0.2c0,0,0.1,0.1,0.1,0l0,0
			c0.3,0.6,0.7,1.2,1.2,1.6c-4.5,0.1-8.5,6.5-10.2,9c-2,3-3.7,6.1-5,9.5l0.4-0.2l0.2-0.1l0,0l0.6-0.1l0,0c0.2,0,0.6-0.1,0.8-0.1
			l0.4,0h0.6c0.2-0.1,0.4-0.1,0.6,0h0.5l0,0h0.1l0,0h0.1h0.6h0.1l2.2,0.2h0.1l0,0h0.4H50h0.2h0.6l0.6-0.1h0.1l0.5,0H52
			c0.5,0,1-0.1,1.4-0.1l0.6-0.1h0.2l1.6,0l2.2-0.2c0.1,0,0.3,0,0.4,0l0,0c0.3,0,0.5,0,0.8,0h1l0.5,0l0,0h0.4l0,0h0.5h0.4l0,0h0.4
			h1.5h1c0.9,0,1.6,0,2.3,0l0,0h0.6h0.2h0.5h0.2h0.5h0.1l0,0l0.1-0.1l0,0c0.1-0.1,0.3,0,0.4,0l0,0h0.2h0.1l0.6-0.1
			c0.5-0.1,0.9-0.2,1.4-0.3l0,0c0.4-0.1,0.7-0.2,1.1-0.3h0.1l0,0l0.2-0.2l0.4-0.1l0.4-0.2l0,0l0.1-0.1l0.3-0.1l0.1-0.1l0,0l0.1-0.1
			l0.3-0.1l0,0l0.9-0.5l0.4-0.2l0.5-0.2l0,0l0.1-0.1c0.1-0.1,0.2-0.2,0.2-0.1l0,0c0.1-0.1,0.2,0,0.3-0.1l0,0c0.1-0.1,0.1,0,0.3-0.1
			l0,0c0,0,0.2-0.2,0.2-0.1l0,0c0.2-0.1,0.3-0.2,0.5-0.2l0,0c0.3,0,0.4-0.2,0.7-0.4l0,0l0.3-0.1l0,0l1-0.5l0,0
			c0.2-0.1,0.3-0.2,0.5-0.2c-0.4-0.9-1-1.7-1.8-2.5c-1.1-1.3-2.3-2.4-3.7-3.7l0,0c0.9-2.7,1.6-5.5,2.2-8.3c1.4-2.9,2.4-6,3.2-9.2
			c1.4-5.5,1-11.3-1-16.5C80.1,1.4,79.8,1.2,79.6,1.2z"/>
		<path d="M163.1,44l-0.3,0.2l0,0l-1.7,0.8l0,0L161,45l0,0l-0.2,0.1l0,0l-0.1,0.1l0,0l-0.1,0.1l-0.1,0.1l0,0l-0.4,0.2l-0.1,0.1l0,0
			l-0.1,0.1l0,0l-0.5,0.2l0,0l-0.3,0.1l0,0l-0.9,0.4l-0.4,0.2l-0.3,0.1l-0.1,0.1l-0.5,0.2l-0.4,0.2l-0.2,0.1l-0.6,0.1h-0.2l0,0
			l-0.6,0.1h-0.2c-0.3,0.1-0.7,0.1-1,0.2l0,0l-0.7,0.1l0,0h-0.4c-0.3,0.1-0.7,0.1-1,0.1h-1.7h-0.2l-0.7,0.2h-1.3H147h-0.1l0,0h-0.4
			l0,0l-0.6,0.2l0,0l-0.7,0.1h-0.5h-0.2H144h-0.3h-0.2l0,0l-0.1,0.1l0,0h-0.5l-0.3-0.1l-0.7,0.1l0,0h-0.2l0,0h-0.4l0,0l-0.2-0.1l0,0
			h-0.4h-0.1l-1,0.1h-0.9l-2.6,0.2h-0.1l-0.7,0.1c-0.5,0-0.9,0-1.4,0l0,0h-0.1h-0.3h-0.6l0,0c-0.2,0.1-0.5,0.1-0.7,0l-0.5-0.1
			l-0.9-0.1l0,0c-1.1-0.1-2.2-0.2-3.3-0.2H127l-0.3,0.1h-0.2l-0.3,0.1c-0.5,0.1-0.9,0.2-1.3,0.4l-0.3,0.1l0,0c0,0.1-0.1,0.1-0.2,0.2
			l0,0c-0.2,0.2-0.4,0.6-0.6,0.8c0,0.1-0.1,0.1-0.2,0.2l-0.1,0.1c-0.2,0.2-0.5,0.3-0.7,0.5l0,0c-1.3,4.4-2.4,8.9-3.2,13.4
			c-1.2,6.9-6.8,19.1-6.7,19.1c-1.3,2.7-2.8,5.5-4.1,8.3c-4.5,8.8-9,17.1-15.1,24.7c-0.7,0.3-1.3,0.7-1.9,1.1c-0.5,0.3-1,0.6-1.4,1
			c-2.9,1-4.8,3.9-5.4,6.9c0,0.1,0,0.2,0.2,0.3l0.5,0.2c0.1,0.1,0.2,0.2,0.3,0.2h0.3l0.2,0.1h0.5l0,0c0.5,0.1,1,0,1.4-0.1
			c11.6-1.3,23.6-4.6,33-10.5c5.1-3.2,8.9-8.1,12.1-13.2c1.7-2.8,3.1-5.6,4.4-8.6c1.3-2.9,7.6-15.4,10.1-18.2c2.8-2.9,6-5.6,8.6-8.7
			c3.7-4.2,7.8-10.2,7.2-16.4v-0.1c0.2-1.1,0.1-2.2-0.2-3.3c-0.2-0.9,0.7-2.3,0.8-2.6c0.1-0.3,0.1-0.6,0.1-0.9L163.1,44L163.1,44z
			 M85.8,123.7c-0.1,0.4-0.2,0.9-0.3,1.3c0-0.1,0-0.2,0-0.3C85.5,124.3,85.7,124,85.8,123.7z"/>
		<path d="M161.7,1.2c-0.7-0.6-1.6-1-2.5-1.1c-0.3,0-0.6-0.1-0.9-0.1c-1-0.1-2.5,0.2-2.8,1c0,0.1,0.1,0.3,0.2,0.2s0.1-0.1,0.2-0.1
			c-0.1,0.3,0.1,0.6,0.3,1c0.4,0.5,0.8,0.8,1.2,1.3c0.1,0.1,0.2,0.2,0.3,0.3c0.2,0.2,0.3,0.5,0.4,0.8l0.6,1.1
			c0.2,0.6,0.4,1.2,0.5,1.8c1.5,5,0.5,8.7-1.9,12.7c-1.1,1.9-2.5,3.8-3.7,5.5c-1.1,1.3-2.1,2.7-2.9,4.3c-2.6-0.8-5.4-0.8-8-1.5
			c-0.8-0.2-2.8-1.9-3.8-1.6c-0.2-0.1-0.5-0.1-0.8,0c-0.2-0.2-0.4,0-0.3,0.2l0.1,0.1l-0.1,0.2c0,0,0.1,0.1,0.1,0l0,0
			c0.2,0.6,0.6,1.2,1.1,1.7c-4.5,0.1-8.4,6.5-10.2,9c-2,2.9-3.7,6.1-5,9.4l0.4-0.2l0.3-0.1l0,0l0.6-0.1l0,0l0.8-0.1l0.4,0h0.6
			c0.2-0.1,0.4-0.1,0.6,0h0.5l0,0h0.1l0,0h0.1h0.6h0.1l2.2,0.2h0.1l0,0h0.4h0.4h0.2h0.6l0.6-0.1h0.1l0.4,0h0.1c0.4,0,1-0.1,1.4-0.1
			l0.6-0.1h0.2l1.6,0l2.2-0.2c0.2,0,0.3,0,0.4,0l0,0c0.3,0,0.5,0,0.9,0h1l0.4,0l0,0h0.4l0,0h0.4h0.4l0,0h0.4h1.5h1
			c0.9,0,1.6,0,2.3,0l0,0h0.6h0.2h0.5h0.2h0.5h0.1l0,0l0.1-0.1l0,0c0.1-0.1,0.3,0,0.4,0l0,0h0.2h0.1l0.6-0.1
			c0.5-0.1,0.9-0.2,1.4-0.3l0,0c0.4-0.1,0.7-0.2,1.1-0.3h0.1l0,0l0.2-0.2l0.4-0.1l0.4-0.2l0,0l0.1-0.1l0.2-0.1l0.1-0.1l0,0l0.1-0.1
			l0.3-0.1l0,0l0.9-0.5l0.4-0.2l0.5-0.2l0,0l0.1-0.1c0.1-0.1,0.2-0.2,0.2-0.1l0,0c0.1-0.1,0.2,0,0.3-0.1l0,0c0.1-0.1,0.1,0,0.3-0.1
			l0,0c0,0,0.2-0.2,0.2-0.1l0,0c0.2-0.1,0.3-0.2,0.5-0.2l0,0c0.3,0,0.4-0.2,0.7-0.4l0,0l0.3-0.1l0,0l1-0.5l0,0
			c0.2-0.1,0.3-0.2,0.5-0.2c-0.4-0.9-1-1.8-1.8-2.5c-1.1-1.3-2.3-2.4-3.6-3.7l0,0c0.9-2.7,1.6-5.5,2.2-8.3c1.4-2.9,2.4-6,3.1-9.2
			c1.4-5.5,1-11.3-1-16.5C162.4,1.3,162,1.1,161.7,1.2z"/>
	</g>
</g>
</svg>
