<svg xmlns="http://www.w3.org/2000/svg" viewBox="0 0 346.97 206.9"><defs><style>.cls-1{fill:#1d1d1b;}</style></defs><g id="Calque_2" data-name="Calque 2"><g id="Calque_1-2" data-name="Calque 1"><path d="M300.69,146.39l-.66-.12h0l-3.43-.64-.1,0h0l-.36-.07h0l-.51-.09h0l-.19,0h0l-.2,0-.26-.05h0l-.77-.14-.26-.05h0l-.17,0-.08,0h0l-1-.19h-.09l-.49-.09h0l-1.81-.34-.82-.17-.49-.1-.21,0c-.32-.08-.64-.15-1-.24l-.73-.21-.42-.12-1-.34-.35-.14h0c-.36-.14-.72-.29-1.07-.45l-.45-.2c-.6-.28-1.19-.56-1.78-.87l-.08,0-1.05-.58h0l-.76-.44c-.55-.32-1.08-.66-1.61-1s-.94-.62-1.4-.94-.88-.62-1.31-.94l-.38-.27-1-.72-1.82-1.38-.87-.67-.16-.12h0l-.61-.47-.18-.14h0l-.4-.3h0l-1.06-.79-.73-.53h0l-.4-.29-.67-.47h0l0,0-.48-.32h0l-.28-.19h0l-.25-.17h0l-.08-.06h0l-.83-.56-.28-.19-1.09-.72h0l0,0-.27-.18h0l0,0-.7-.46h0l-.44-.29h0l-.59-.39-.12-.07-1.46-1q-.69-.44-1.38-.9c-1.36-.9-2.75-1.77-4.13-2.66l-.12-.08-1.08-.71c-.75-.5-1.5-1-2.23-1.54h0l-.13-.1-.44-.32-.08-.06-1-.78,0,0c-.36-.29-.72-.58-1.06-.88l-.67-.59-1.32-1.21h0a45.42,45.42,0,0,0-4.79-4l0,0-.5-.33-.23-.15-.33-.2-.58-.34a7.8,7.8,0,0,0-2.35-.93,1.38,1.38,0,0,0-.53,0h0L237,111h0a13.79,13.79,0,0,1-2,.62c-.16,0-.32,0-.49.06s-.2-.06-.3,0a13.1,13.1,0,0,1-1.66-.12h-.05A222.88,222.88,0,0,0,212.75,128c-9.53,8.88-31.46,21.25-31.34,21.28-5,2.66-10.2,5.2-15.39,7.81-16.33,8.22-32.37,15.69-50,20.27a21,21,0,0,0-4.1-.38,23.71,23.71,0,0,0-3.15-.13c-5.48-1.88-11.7.42-15.72,4.27a.5.5,0,0,0-.08.64c.18.27.37.52.56.77a.88.88,0,0,0,.38.75l.54.33a.74.74,0,0,0,.29.34l.7.42,0,0a6.59,6.59,0,0,0,2.35,1.42c18.78,11.08,40.54,19.41,61.13,21,11.35.85,22.47-2.22,32.81-6.4a149.38,149.38,0,0,0,16.16-8c5.27-2.92,28.53-14.78,35.25-16,7.46-1.4,15.13-1.76,22.54-3.42,10.06-2.27,22.94-6.57,29-16.64a.26.26,0,0,0,.17-.05c1.52-1.19,2.41-3.41,3.32-5.2.79-1.55,3.64-2.59,4-2.92a6.75,6.75,0,0,0,1.17-1.23l-2.77-.51ZM95.9,180.12a17.91,17.91,0,0,0-1.9,1.56,1.44,1.44,0,0,1,.4-.5A15.11,15.11,0,0,1,95.9,180.12Z"/><path d="M346.23,80.6a8.93,8.93,0,0,0-2.36-4.4,7.34,7.34,0,0,0-1.27-1.1c-1.45-1.33-3.86-2.56-5.43-1.67-.21.11-.08.44.1.5a3.77,3.77,0,0,0,.43.1c-.48.4-.49,1-.6,1.81a18.57,18.57,0,0,0,.44,3.2c0,.3.07.61.09.91-.06.69-.1,1.28-.15,1.64l-.36,2.47c-.31,1.14-.71,2.25-1.1,3.28-3.45,9.16-8.9,13.78-17,17.08-3.88,1.56-7.85,2.89-11.83,4.14-3.09,1-6.31,1.47-9.1,3.13-2.9-4.17-7.25-7.33-10.28-11.15-1-1.2-2.13-6-3.85-6.71a1.8,1.8,0,0,0-1.23-.77c-.09-.33-.52-.44-.65-.1l-.11.33-.23.17c-.07.06,0,.19.08.16h.05a7.28,7.28,0,0,0,0,3.59c-6.75-4.79-20,.43-25.48,2.2a83.53,83.53,0,0,0-18.07,8.47,6.09,6.09,0,0,1,.88.16l.52.16h0a10.78,10.78,0,0,1,1.07.42h0a13.91,13.91,0,0,1,1.32.7l.67.4c.34.23.68.45,1,.69s.62.46.93.69.58.43.85.65h0a.35.35,0,0,0,.17.11h0s0,0,.06.08l.45.39.43.37a.23.23,0,0,1,.07.07c1,.88,2,1.79,3,2.68l.11.1,0,0h0l.51.45.51.44.34.29c.3.26.61.52.93.77s.49.39.73.57l.2.14.62.44.13.09c.72.49,1.46,1,2.2,1.42l1,.66.3.19c.85.55,1.69,1.11,2.53,1.67l3.46,2.26c.25.16.44.31.76.48h0c.42.29.89.58,1.34.87h0l.54.35.53.35.52.34h0l.65.43h0l.71.48h0l.65.45.6.44h0l.56.41h0q1.14.82,2.25,1.68l0,0h0l1.37,1.05c1.17.9,2.35,1.81,3.55,2.7h0l.06,0,.95.68.35.25.76.52.39.26.92.59.2.13h0l.23.14h0l.78.46h0l.32.19.17.09c.34.19.67.37,1,.54.79.4,1.6.77,2.42,1.1h0c.63.26,1.28.49,1.93.69l.16,0,.07,0,.31.09.62.17.78.18.12,0,.14,0,.26.05.53.11.21,0,.09,0,.21,0,.48.08.07,0,2,.33.74.12,1,.19h.06l.32.06.57.1h0c.17,0,.37.13.53.16h0c.17,0,.15.13.5.16h0a4.35,4.35,0,0,1,.53,0h0a9.58,9.58,0,0,0,1.06.13h.05c.46.38.68.15,1.45.27h0l.09,0h0l.1,0h0l.58.11h0l.1,0h0l2.09.38h0s.64.12,1,.17a18.55,18.55,0,0,0,.11-5.65c-.31-3.06-.76-6.31-1.34-9.55l.07,0s8-6.8,11.24-10.17a94.31,94.31,0,0,0,15-10.28,50.89,50.89,0,0,0,17.05-26A1.5,1.5,0,0,0,346.23,80.6Z"/><path class="cls-1" d="M11.87,100.53a11.58,11.58,0,0,1,6.5,1.84A5.14,5.14,0,0,1,21,106.74a3.74,3.74,0,0,1-1.24,2.91,4,4,0,0,1-2.8,1.06,3,3,0,0,1-2.58-1.24,10.69,10.69,0,0,1-.79-2,2.14,2.14,0,0,0-2.13-1.74,2.31,2.31,0,0,0-1.91,1,3.81,3.81,0,0,0-.78,2.44,6.28,6.28,0,0,0,1.78,4.4,4.76,4.76,0,0,0,3.64,1.55,7.75,7.75,0,0,0,1.74-.17,10.86,10.86,0,0,0,1.84-.72,1.5,1.5,0,0,1,.64-.14,1.57,1.57,0,0,1,1.24.66,2.38,2.38,0,0,1,.54,1.55,3.35,3.35,0,0,1-.77,2,7.12,7.12,0,0,1-2,1.79,11.9,11.9,0,0,1-6.35,1.65,11,11,0,0,1-7.26-2.48,9.9,9.9,0,0,1-3.85-8,9.73,9.73,0,0,1,3.58-7.73A12.26,12.26,0,0,1,11.87,100.53Z"/><path class="cls-1" d="M33.72,101.71v11.21c0,2.4.79,3.6,2.38,3.6a2.29,2.29,0,0,0,1.18-.34,1.94,1.94,0,0,0,.8-.84,13.25,13.25,0,0,0,.46-4.43,30.78,30.78,0,0,0-.23-4.63,1.59,1.59,0,0,0-.29-.76,3,3,0,0,0-.79-.54,1.82,1.82,0,0,1-1.17-1.57c0-.86.67-1.45,2-1.78a31.33,31.33,0,0,1,7.59-1c1.4,0,2.09.74,2.09,2.22,0,.15,0,.46,0,.93,0,.66-.05,1.47-.06,2.42v9.12c0,.47.4.9,1.2,1.28a1.57,1.57,0,0,1,1,1.45q0,1.86-4.4,2.88a22.22,22.22,0,0,1-5,.6,2.78,2.78,0,0,1-1.35-.23,1.1,1.1,0,0,1-.43-.89c-.07-.86-.33-1.28-.78-1.28a1,1,0,0,0-.46.11q-.21.12-1.26.84a7.82,7.82,0,0,1-4.49,1.43q-4,0-5.61-2.3-1.38-1.92-1.38-6.47c0-1.14,0-2.1,0-2.9v-.95a8,8,0,0,0-.32-2.62A2.48,2.48,0,0,0,23.25,105a4,4,0,0,1-1-.66,1,1,0,0,1-.22-.69c0-1.05.79-1.74,2.38-2.09a37.87,37.87,0,0,1,8.11-.89C33.31,100.67,33.72,101,33.72,101.71Z"/><path class="cls-1" d="M62.9,104.73v6.64A48.72,48.72,0,0,0,63,116.5a1.58,1.58,0,0,0,1,1.12,3.07,3.07,0,0,1,1,.62,1.2,1.2,0,0,1,.26.82,1.85,1.85,0,0,1-.49,1.24,2.55,2.55,0,0,1-1.29.79,19.43,19.43,0,0,1-5,.46,18.1,18.1,0,0,1-5.61-.6,2.85,2.85,0,0,1-1.22-.84,1.87,1.87,0,0,1-.47-1.19,1,1,0,0,1,.26-.77,4,4,0,0,1,1.12-.64c.54-.23.87-.87,1-1.92a67.18,67.18,0,0,0,.33-7.65,43.91,43.91,0,0,0-.29-6.5,3.14,3.14,0,0,0-1.45-2.15A3.82,3.82,0,0,1,51,98.35a1.85,1.85,0,0,1-.32-1.09,2.21,2.21,0,0,1,1-1.77,9.88,9.88,0,0,1,3.1-1.39,31.46,31.46,0,0,1,3.71-.83,22,22,0,0,1,3.31-.39c1.09,0,1.63.67,1.63,2,0,.44-.07,1.46-.2,3Q63,101.65,62.9,104.73Z"/><path class="cls-1" d="M78.85,106v7a3.27,3.27,0,0,0,.61,2,1.9,1.9,0,0,0,1.56.78,4.71,4.71,0,0,0,2.14-.74,1.21,1.21,0,0,1,.62-.19,1.15,1.15,0,0,1,.91.6,2.31,2.31,0,0,1,.41,1.31,3.29,3.29,0,0,1-1.41,2.46,10.57,10.57,0,0,1-7.11,2.5,7.48,7.48,0,0,1-5.32-1.87,6.42,6.42,0,0,1-2-4.93v-9.56c0-.32,0-.51-.11-.59s-.27-.11-.59-.11H66.42a1,1,0,0,1-.76-.2,1.62,1.62,0,0,1-.17-.92v-.91a1,1,0,0,1,.48-.91l9.47-6a1.87,1.87,0,0,1,.87-.19H78a.83.83,0,0,1,.7.24,1.83,1.83,0,0,1,.17.94v2.8a1.13,1.13,0,0,0,.2.8,1.25,1.25,0,0,0,.84.19h3.82c.51,0,.85.09,1,.28a2.08,2.08,0,0,1,.22,1.19v1.22a2.3,2.3,0,0,1-.29,1.37,1.22,1.22,0,0,1-1,.39H79.85a1.17,1.17,0,0,0-.79.2A1.12,1.12,0,0,0,78.85,106Z"/><path class="cls-1" d="M97.51,101.71v11.21c0,2.4.79,3.6,2.38,3.6a2.29,2.29,0,0,0,1.18-.34,2,2,0,0,0,.81-.84,13.34,13.34,0,0,0,.45-4.43,30.78,30.78,0,0,0-.23-4.63,1.49,1.49,0,0,0-.29-.76A2.88,2.88,0,0,0,101,105a1.82,1.82,0,0,1-1.18-1.57c0-.86.67-1.45,2-1.78a31.21,31.21,0,0,1,7.59-1c1.39,0,2.09.74,2.09,2.22,0,.15,0,.46,0,.93,0,.66-.05,1.47-.07,2.42v9.12c0,.47.4.9,1.2,1.28a1.57,1.57,0,0,1,1,1.45q0,1.86-4.41,2.88a22.09,22.09,0,0,1-5,.6,2.78,2.78,0,0,1-1.35-.23,1.1,1.1,0,0,1-.42-.89c-.07-.86-.34-1.28-.79-1.28a1,1,0,0,0-.46.11l-1.26.84a7.82,7.82,0,0,1-4.49,1.43q-4,0-5.6-2.3c-.92-1.28-1.39-3.44-1.39-6.47,0-1.14,0-2.1,0-2.9v-.95a7.71,7.71,0,0,0-.32-2.62A2.48,2.48,0,0,0,87,105a4.42,4.42,0,0,1-1-.66,1.06,1.06,0,0,1-.22-.69c0-1.05.8-1.74,2.38-2.09a37.94,37.94,0,0,1,8.11-.89C97.1,100.67,97.51,101,97.51,101.71Z"/><path class="cls-1" d="M124.55,100.65c.73,0,1.17.11,1.33.31a5.63,5.63,0,0,1,.43,2c.06.61.28.91.64.91s.53-.2.78-.6a5,5,0,0,1,4.33-2.59,4.12,4.12,0,0,1,3.08,1.23,4.75,4.75,0,0,1,1,1.54,4.84,4.84,0,0,1,.37,1.81,4.94,4.94,0,0,1-.45,2,5.06,5.06,0,0,1-1.18,1.69,4.55,4.55,0,0,1-3.25,1.26,3.8,3.8,0,0,1-1.77-.37,8.76,8.76,0,0,1-1.87-1.51,1.22,1.22,0,0,0-.81-.44.75.75,0,0,0-.75.65,13,13,0,0,0-.18,2.75,26,26,0,0,0,.23,4.26,1.68,1.68,0,0,0,.4.86,3.31,3.31,0,0,0,1.11.48q1.86.55,1.86,1.95a2.06,2.06,0,0,1-.6,1.47,2.86,2.86,0,0,1-1.59.84,30.31,30.31,0,0,1-5.83.42,18.66,18.66,0,0,1-5.57-.64,2.11,2.11,0,0,1-1.7-2,2.39,2.39,0,0,1,1.25-1.93,2.9,2.9,0,0,0,.82-.71,2,2,0,0,0,.31-.88,48,48,0,0,0,.33-7,3.26,3.26,0,0,0-.2-1.33,1.5,1.5,0,0,0-.83-.65q-1.47-.59-1.47-1.68a2.08,2.08,0,0,1,1-1.71,12.64,12.64,0,0,1,3.4-1.41A20.2,20.2,0,0,1,124.55,100.65Z"/><path class="cls-1" d="M156.2,111.87h-9.73c-.42,0-.64.18-.64.55a3.35,3.35,0,0,0,1.46,2.54,4.88,4.88,0,0,0,3.13,1.19,7.26,7.26,0,0,0,2.21-.39,6.82,6.82,0,0,0,2-.94,2.17,2.17,0,0,1,1.12-.49,1.42,1.42,0,0,1,1.06.66,2.22,2.22,0,0,1,.51,1.36,3.76,3.76,0,0,1-1.86,2.88,12.32,12.32,0,0,1-7.59,2.46,10.78,10.78,0,0,1-7.28-2.52,10.43,10.43,0,0,1-2.36-3,10.55,10.55,0,0,1-1.22-4.93,10,10,0,0,1,2.11-6.24,11.13,11.13,0,0,1,4.63-3.58,11.71,11.71,0,0,1,4.57-.89,10.29,10.29,0,0,1,6.69,2.23,9.14,9.14,0,0,1,2.23,2.65,6.91,6.91,0,0,1,1,3.39,3.94,3.94,0,0,1-.56,2.21A1.67,1.67,0,0,1,156.2,111.87ZM147,108h2.09c.88,0,1.32-.41,1.32-1.22a2.56,2.56,0,0,0-.64-1.82,2.3,2.3,0,0,0-3.49.2,2.86,2.86,0,0,0-.62,1.72,1.09,1.09,0,0,0,.3.87A1.68,1.68,0,0,0,147,108Z"/><path class="cls-1" d="M171.36,104.73v6.64a50.24,50.24,0,0,0,.13,5.13,1.58,1.58,0,0,0,1,1.12,2.9,2.9,0,0,1,1,.62,1.2,1.2,0,0,1,.26.82,1.81,1.81,0,0,1-.49,1.24,2.51,2.51,0,0,1-1.29.79,19.37,19.37,0,0,1-5,.46,18,18,0,0,1-5.6-.6,2.73,2.73,0,0,1-1.22-.84,1.83,1.83,0,0,1-.48-1.19,1.09,1.09,0,0,1,.26-.77,4,4,0,0,1,1.13-.64c.53-.23.87-.87,1-1.92a67.18,67.18,0,0,0,.33-7.65,43.91,43.91,0,0,0-.29-6.5,3.08,3.08,0,0,0-1.45-2.15,3.94,3.94,0,0,1-1.19-.94,1.85,1.85,0,0,1-.32-1.09,2.22,2.22,0,0,1,1-1.77,9.67,9.67,0,0,1,3.1-1.39,30.78,30.78,0,0,1,3.7-.83,22.17,22.17,0,0,1,3.31-.39c1.09,0,1.64.67,1.64,2,0,.44-.07,1.46-.21,3C171.49,100.41,171.38,102.67,171.36,104.73Z"/><path class="cls-1" d="M186.83,104.73v6.64a50.24,50.24,0,0,0,.13,5.13,1.6,1.6,0,0,0,1,1.12,2.9,2.9,0,0,1,1,.62,1.16,1.16,0,0,1,.26.82,1.84,1.84,0,0,1-.48,1.24,2.58,2.58,0,0,1-1.3.79,19.34,19.34,0,0,1-5,.46,18.05,18.05,0,0,1-5.61-.6,2.79,2.79,0,0,1-1.22-.84,1.83,1.83,0,0,1-.48-1.19,1.09,1.09,0,0,1,.26-.77,4,4,0,0,1,1.13-.64q.81-.35,1-1.92a67.18,67.18,0,0,0,.33-7.65,42.49,42.49,0,0,0-.29-6.5,3.1,3.1,0,0,0-1.44-2.15,3.82,3.82,0,0,1-1.19-.94,1.78,1.78,0,0,1-.32-1.09,2.21,2.21,0,0,1,1-1.77,9.77,9.77,0,0,1,3.1-1.39,31.23,31.23,0,0,1,3.7-.83,22.17,22.17,0,0,1,3.31-.39c1.09,0,1.64.67,1.64,2,0,.44-.07,1.46-.21,3Q186.87,101.65,186.83,104.73Z"/><path class="cls-1" d="M209.6,111.87h-9.72c-.42,0-.64.18-.64.55A3.35,3.35,0,0,0,200.7,115a4.88,4.88,0,0,0,3.13,1.19,7.26,7.26,0,0,0,2.21-.39,6.82,6.82,0,0,0,2-.94,2.17,2.17,0,0,1,1.12-.49,1.42,1.42,0,0,1,1.06.66,2.22,2.22,0,0,1,.51,1.36,3.76,3.76,0,0,1-1.86,2.88,12.32,12.32,0,0,1-7.59,2.46,10.78,10.78,0,0,1-7.28-2.52,10.43,10.43,0,0,1-2.36-3,10.55,10.55,0,0,1-1.22-4.93,10,10,0,0,1,2.11-6.24,11.13,11.13,0,0,1,4.63-3.58,11.71,11.71,0,0,1,4.57-.89,10.29,10.29,0,0,1,6.69,2.23,9.14,9.14,0,0,1,2.23,2.65,6.91,6.91,0,0,1,1,3.39,3.94,3.94,0,0,1-.56,2.21A1.67,1.67,0,0,1,209.6,111.87ZM200.42,108h2.09c.88,0,1.32-.41,1.32-1.22a2.56,2.56,0,0,0-.64-1.82,2.3,2.3,0,0,0-3.49.2,2.86,2.86,0,0,0-.62,1.72,1.09,1.09,0,0,0,.3.87A1.68,1.68,0,0,0,200.42,108Z"/><path d="M1.14,16.25h9.58V73.52h19V83.1H1.14Z"/><path d="M26.7,16.25h9.58v9.58l-9.58,7Z"/><path d="M44.73,16.25H73.28v9h-19V44.88H70.84v9H54.31V73.52h19V83.1H44.73ZM60.89,0H71L58.63,13.24h-6.2Z"/><path d="M79.48,16.25H93.85c5.26,0,9.11,1.22,12.39,4.69s4.32,7.7,4.32,15.69c0,5.82-.47,9.75-2.72,13.42C105.21,54.37,101,57,93.94,57H89.06V83.1H79.48ZM89.06,48h4.6c7.79,0,7.89-4.6,7.89-11.26,0-6.29,0-11.46-7.51-11.46h-5Z"/><path d="M118,16.25h9.58V83.1H118Z"/><path d="M167.28,68.17a15.45,15.45,0,0,1-15.21,15.5c-7.33,0-15.78-3.57-15.78-15.78V31.08c0-8.73,6.29-15.4,15.59-15.4,8.83,0,15.4,6.67,15.4,16V35.4H157.7V32.21c0-3.75-2.25-6.95-5.91-6.95-4.79,0-5.92,3.29-5.92,7.8V67.23c0,3.85,1.5,6.86,5.82,6.86,2.63,0,6-1.51,6-6.77V64h9.58Z"/><path d="M175.08,16.25h28.55v9h-19V44.88h16.53v9H184.65V73.52h19V83.1H175.08Z"/><path d="M209.83,16.25h15.4c11.36,0,16.9,6.66,16.9,19.62,0,7.7-2.16,13.33-8.26,16.71L244.2,83.1H234.06l-8.93-28.55H219.4V83.1h-9.57ZM219.4,46.1h5.45c6.67,0,7.7-3.75,7.7-10.41s-1.12-10.43-8.17-10.43h-5Z"/><path d="M250.11,16.25h9.58V83.1h-9.58Z"/><path d="M269,16.25h28.55v9h-19V44.88h16.52v9H278.57V73.52h19V83.1H269Z"/><path class="cls-1" d="M8.86,154.14H3.94V140.29H8.86q5.33,0,5.32,6v1.81C14.18,152.14,12.41,154.14,8.86,154.14Zm-2.11-2.37H8.86a2.15,2.15,0,0,0,1.93-.87,5.12,5.12,0,0,0,.58-2.78v-1.81a5.11,5.11,0,0,0-.58-2.76,2.15,2.15,0,0,0-1.93-.87H6.75Z"/><path class="cls-1" d="M24.52,148.54v-8.25h2.81v8.23a6,6,0,0,1-1.41,4.34A5.18,5.18,0,0,1,22,154.32a5.18,5.18,0,0,1-3.9-1.45,6,6,0,0,1-1.42-4.33v-8.25H19.5v8.25a4.44,4.44,0,0,0,.6,2.59A2.22,2.22,0,0,0,22,152a2.21,2.21,0,0,0,1.91-.83A4.44,4.44,0,0,0,24.52,148.54Z"/><path class="cls-1" d="M34.28,142.68v-2.39H44.72v2.39H40.9v11.46H38.09V142.68Z"/><path class="cls-1" d="M46.44,154.14V140.29h8.64v2.39H49.25v3.11h5.22v2.37H49.25v3.61h5.83v2.37Z"/><path class="cls-1" d="M65,148.24l2.87,5.9H64.77l-2.49-5.44H60v5.44H57.22V140.29h5a6,6,0,0,1,3.83,1.1,3.79,3.79,0,0,1,1.35,3.14A3.66,3.66,0,0,1,65,148.24Zm-5-5.56v3.65h1.89a3.81,3.81,0,0,0,2-.4,1.54,1.54,0,0,0,.62-1.4,1.59,1.59,0,0,0-.63-1.43,3.7,3.7,0,0,0-2-.42Z"/><path class="cls-1" d="M77.58,148.24l2.87,5.9H77.36l-2.49-5.44H72.62v5.44H69.81V140.29h5a5.91,5.91,0,0,1,3.82,1.1A3.77,3.77,0,0,1,80,144.53,3.66,3.66,0,0,1,77.58,148.24Zm-5-5.56v3.65h1.89a3.84,3.84,0,0,0,2-.4,1.54,1.54,0,0,0,.62-1.4,1.59,1.59,0,0,0-.63-1.43,3.72,3.72,0,0,0-2-.42Z"/><path class="cls-1" d="M82.6,140.29h2.81v13.85H82.6Z"/><path class="cls-1" d="M87.34,142.68v-2.39H97.78v2.39H94v11.46H91.15V142.68Z"/><path class="cls-1" d="M109.56,146.23v2a6.65,6.65,0,0,1-1.4,4.57,5,5,0,0,1-3.92,1.55,5,5,0,0,1-3.9-1.55,6.65,6.65,0,0,1-1.4-4.57v-2a6.61,6.61,0,0,1,1.4-4.57,5.72,5.72,0,0,1,7.83,0A6.61,6.61,0,0,1,109.56,146.23Zm-7.81,0v2c0,2.5.83,3.76,2.49,3.76s2.51-1.26,2.51-3.76v-2q0-3.75-2.51-3.75T101.75,146.23Z"/><path class="cls-1" d="M112.27,140.29h2.81v13.85h-2.81Z"/><path class="cls-1" d="M126,148.24l2.87,5.9h-3.09l-2.49-5.44H121v5.44h-2.81V140.29h5a6,6,0,0,1,3.83,1.1,3.79,3.79,0,0,1,1.35,3.14A3.66,3.66,0,0,1,126,148.24Zm-5-5.56v3.65h1.89a3.84,3.84,0,0,0,2-.4,1.54,1.54,0,0,0,.62-1.4,1.59,1.59,0,0,0-.63-1.43,3.7,3.7,0,0,0-2-.42Z"/><path class="cls-1" d="M130.8,154.14V140.29h8.63v2.39h-5.82v3.11h5.22v2.37h-5.22v3.61h5.82v2.37Z"/></g></g></svg>