<?xml version="1.0" encoding="utf-8"?>
<!-- Generator: Adobe Illustrator 25.4.1, SVG Export Plug-In . SVG Version: 6.00 Build 0)  -->
<svg version="1.1" id="Calque_1" xmlns="http://www.w3.org/2000/svg" xmlns:xlink="http://www.w3.org/1999/xlink" x="0px" y="0px"
	 viewBox="0 0 32 32" style="enable-background:new 0 0 32 32;" xml:space="preserve">
<style type="text/css">
	.st0{fill-rule:evenodd;clip-rule:evenodd;}
</style>
<path class="st0" d="M6.9,0C3.1,0,0,3.1,0,6.9v18.3C0,28.9,3.1,32,6.9,32h18.3c3.8,0,6.9-3.1,6.9-6.9V6.9C32,3.1,28.9,0,25.1,0H6.9z
	 M27.1,6.9c0,1.1-0.9,2-2,2c-1.1,0-2-0.9-2-2s0.9-2,2-2C26.2,4.9,27.1,5.8,27.1,6.9 M16,10.5c-3,0-5.5,2.4-5.5,5.5
	c0,3,2.4,5.5,5.5,5.5c0,0,0,0,0,0c3,0,5.5-2.5,5.5-5.5C21.5,13,19,10.5,16,10.5 M7.9,16c0-4.5,3.6-8.1,8.1-8.1s8.1,3.6,8.1,8.1
	c0,4.5-3.6,8.1-8.1,8.1C11.5,24.1,7.9,20.5,7.9,16"/>
</svg>
