<svg xmlns="http://www.w3.org/2000/svg" viewBox="0 0 193.09 193.09"><defs><style>.cls-1{fill:#fff;}.cls-2{fill:#1d1d1b;}</style></defs><g id="Calque_2" data-name="Calque 2"><g id="Calque_1-2" data-name="Calque 1"><circle class="cls-1" cx="96.55" cy="96.55" r="96.55"/><g id="Calque_2-2" data-name="Calque 2"><g id="Calque_1-2-2" data-name="Calque 1-2"><path d="M156.13,115.28l-.29,0h0l-1.5-.28h0l-.16,0h0l-.22,0h-.17l-.12,0h0l-.33-.06-.12,0h-.11l-.43-.09h0l-.22,0h0l-.79-.14-.35-.08-.22,0h-.09l-.44-.11-.31-.09-.19,0-.43-.15-.16-.06h0l-.46-.2-.2-.08-.78-.38h0l-.46-.26h0l-.33-.19-.71-.44c-.23-.14-.41-.27-.61-.41l-.57-.41-.16-.11-.44-.32-.79-.6-.38-.29-.07-.06h0l-.27-.2-.08-.06h0l-.17-.13h0l-.47-.35-.32-.23h0l-.17-.13-.29-.2h0l-.21-.14h0l-.12-.08h0l-.11-.08h0l0,0h0l-.36-.25-.12-.08-.48-.32h0l-.12-.07h0l-.3-.21h0l-.19-.12h0l-.26-.17-.05,0-.64-.44-.6-.39-1.81-1.16,0,0-.47-.31c-.33-.22-.66-.43-1-.67h0l-.06,0-.19-.14,0,0-.43-.34h0l-.47-.38-.29-.26-.58-.53h0a19.56,19.56,0,0,0-2.09-1.75h0l-.21-.14-.11-.07-.14-.08-.25-.15a3.52,3.52,0,0,0-1-.41.88.88,0,0,0-.23,0h0l-.3-.15h0a4.39,4.39,0,0,1-.87.27.51.51,0,0,0-.21,0c-.08,0-.09,0-.13,0a5.84,5.84,0,0,1-.73,0h0a96.91,96.91,0,0,0-8.62,7.17c-4.16,3.88-13.74,9.28-13.68,9.29-2.19,1.17-4.46,2.27-6.72,3.41-7.13,3.59-14.13,6.85-21.83,8.85a9,9,0,0,0-1.79-.16,10.39,10.39,0,0,0-1.37-.06,7,7,0,0,0-6.86,1.86.22.22,0,0,0,0,.28c.08.12.16.23.25.34a.37.37,0,0,0,.16.33l.24.14a.35.35,0,0,0,.12.15l.31.18h0a2.75,2.75,0,0,0,1,.62c8.2,4.84,17.7,8.47,26.69,9.17,5,.37,9.81-1,14.32-2.8a64.26,64.26,0,0,0,7.06-3.49c2.3-1.27,12.45-6.45,15.38-7,3.26-.61,6.61-.77,9.84-1.49,4.39-1,10-2.87,12.66-7.27a.11.11,0,0,0,.08,0,6.8,6.8,0,0,0,1.45-2.27c.34-.68,1.58-1.13,1.74-1.27a2.89,2.89,0,0,0,.51-.54l-1.21-.22ZM66.73,130a6.66,6.66,0,0,0-.83.68.55.55,0,0,1,.18-.22A5.06,5.06,0,0,1,66.73,130Z"/><path d="M176,86.56a4,4,0,0,0-1-1.92,3.16,3.16,0,0,0-.55-.48c-.63-.58-1.68-1.11-2.37-.73-.09,0,0,.2,0,.22l.19,0c-.21.17-.21.43-.26.79a8.15,8.15,0,0,0,.19,1.39c0,.13,0,.27,0,.4,0,.3,0,.56-.06.72L172,88.07c-.14.5-.31,1-.48,1.44A12,12,0,0,1,164.13,97c-1.7.68-3.43,1.26-5.17,1.81a18.63,18.63,0,0,0-4,1.37c-1.27-1.83-3.16-3.2-4.49-4.87-.43-.53-.93-2.62-1.68-2.93a.79.79,0,0,0-.53-.34c0-.14-.23-.19-.29,0l-.05.14-.1.08s0,.08,0,.07h0a3.17,3.17,0,0,0,0,1.56c-2.95-2.09-8.73.19-11.12,1a36.88,36.88,0,0,0-7.89,3.7l.38.07.23.07h0a3.85,3.85,0,0,1,.47.19h0a5.12,5.12,0,0,1,.57.3l.3.18c.15.1.29.19.43.3l.41.3.37.28h0l.07,0h0l0,0,.2.17.18.17s0,0,0,0l1.3,1.17.05,0h0l.23.2.22.19.15.13.4.33.32.25.09.06.27.19.06,0a9.8,9.8,0,0,0,1,.62l.43.29.13.08,1.11.73,1.51,1,.33.21h0c.18.13.39.25.59.38h0l.23.15.23.15.23.15h0l.28.19h0l.31.21h0l.29.2.26.19h0l.24.18h0l1,.73h0l.59.46,1.55,1.18h0l.41.29.16.11.33.23.17.11.4.26.09.06h0l.1.06h0l.34.2h0l.14.08.07,0,.44.24c.34.17.7.33,1.06.48h0q.41.17.84.3h.1l.13,0,.27.07.34.08h.12l.11,0,.23,0H152l.21,0h0l.87.14.32,0,.44.09h0l.14,0,.25,0h0a.88.88,0,0,1,.23.07h0c.08,0,.07,0,.22.07H155l.47,0h0c.2.17.3.07.63.12h.08l.26,0h0l.91.16h0l.44.08a8.19,8.19,0,0,0,.05-2.47c-.14-1.33-.33-2.75-.59-4.17h0s3.5-3,4.91-4.44a41.22,41.22,0,0,0,6.55-4.48,22.31,22.31,0,0,0,7.44-11.35A.68.68,0,0,0,176,86.56Z"/><path class="cls-2" d="M30.05,95.26a5,5,0,0,1,2.84.81A2.21,2.21,0,0,1,34,98a1.6,1.6,0,0,1-.54,1.27,1.73,1.73,0,0,1-1.22.47,1.32,1.32,0,0,1-1.13-.54,4.71,4.71,0,0,1-.34-.88,1,1,0,0,0-.93-.76A1,1,0,0,0,29,98,1.6,1.6,0,0,0,28.7,99a2.72,2.72,0,0,0,.77,1.92,2.09,2.09,0,0,0,1.59.67,3.21,3.21,0,0,0,.76-.07,4.31,4.31,0,0,0,.8-.32.66.66,0,0,1,.82.23,1,1,0,0,1,.24.68,1.41,1.41,0,0,1-.34.87,3,3,0,0,1-.87.78,5.11,5.11,0,0,1-2.77.72,4.8,4.8,0,0,1-3.17-1.08A4.32,4.32,0,0,1,24.85,100a4.25,4.25,0,0,1,1.56-3.38A5.4,5.4,0,0,1,30.05,95.26Z"/><path class="cls-2" d="M39.59,95.78v4.89c0,1,.34,1.57,1,1.57a1,1,0,0,0,.51-.14,1,1,0,0,0,.35-.37,5.75,5.75,0,0,0,.2-1.94,13.67,13.67,0,0,0-.1-2,.68.68,0,0,0-.13-.33,1.36,1.36,0,0,0-.34-.23.79.79,0,0,1-.51-.69q0-.55.87-.78a13.72,13.72,0,0,1,3.31-.43c.62,0,.92.32.92,1v.4c0,.29,0,.64,0,1.06v4c0,.2.18.39.52.56a.67.67,0,0,1,.44.63q0,.81-1.92,1.26a9.42,9.42,0,0,1-2.18.26,1.19,1.19,0,0,1-.59-.1.49.49,0,0,1-.19-.39c0-.37-.14-.56-.34-.56a.46.46,0,0,0-.2.05l-.55.37a3.43,3.43,0,0,1-2,.62,2.79,2.79,0,0,1-2.45-1,5,5,0,0,1-.6-2.83V98.91a3.4,3.4,0,0,0-.14-1.14,1.14,1.14,0,0,0-.5-.56,1.83,1.83,0,0,1-.44-.28.49.49,0,0,1-.1-.3c0-.46.35-.76,1-.92a17.61,17.61,0,0,1,3.54-.39C39.41,95.32,39.59,95.47,39.59,95.78Z"/><path class="cls-2" d="M52.32,97.1V100a20.75,20.75,0,0,0,0,2.23.69.69,0,0,0,.43.49,1.62,1.62,0,0,1,.44.27.53.53,0,0,1,.11.36.76.76,0,0,1-.21.54,1.14,1.14,0,0,1-.56.35,8.44,8.44,0,0,1-2.18.2,8.05,8.05,0,0,1-2.45-.26,1.34,1.34,0,0,1-.54-.37.82.82,0,0,1-.2-.52.44.44,0,0,1,.11-.33,1.6,1.6,0,0,1,.49-.28c.24-.1.38-.38.44-.84a28.7,28.7,0,0,0,.14-3.34,18,18,0,0,0-.13-2.84,1.34,1.34,0,0,0-.63-.94,1.64,1.64,0,0,1-.5-.41.79.79,0,0,1-.14-.47,1,1,0,0,1,.44-.78,4.2,4.2,0,0,1,1.35-.6,12.68,12.68,0,0,1,1.62-.37,10.09,10.09,0,0,1,1.44-.17c.48,0,.72.3.72.88,0,.19,0,.63-.09,1.31C52.4,95.2,52.35,96.2,52.32,97.1Z"/><path class="cls-2" d="M59.29,97.65v3.06a1.42,1.42,0,0,0,.26.87.84.84,0,0,0,.68.34,2.07,2.07,0,0,0,.94-.32.62.62,0,0,1,.27-.09.52.52,0,0,1,.4.27,1,1,0,0,1,.18.57,1.44,1.44,0,0,1-.62,1.07,4.58,4.58,0,0,1-3.1,1.09A3.31,3.31,0,0,1,56,103.7a2.84,2.84,0,0,1-.87-2.15V97.37c0-.14,0-.22-.05-.26a.47.47,0,0,0-.25,0h-.94a.47.47,0,0,1-.33-.09.68.68,0,0,1-.07-.4v-.4a.46.46,0,0,1,.2-.4l4.14-2.62a1,1,0,0,1,.38-.08h.74a.35.35,0,0,1,.3.11.82.82,0,0,1,.08.41v1.22a.48.48,0,0,0,.08.35.54.54,0,0,0,.37.08h1.67c.22,0,.37,0,.43.12a.86.86,0,0,1,.1.52v.53a1,1,0,0,1-.13.6.51.51,0,0,1-.43.17H59.72a.52.52,0,0,0-.34.09A.49.49,0,0,0,59.29,97.65Z"/><path class="cls-2" d="M67.43,95.78v4.89c0,1,.35,1.57,1,1.57a1.07,1.07,0,0,0,.52-.14,1,1,0,0,0,.35-.37,6,6,0,0,0,.2-1.94,15.18,15.18,0,0,0-.1-2,.68.68,0,0,0-.13-.33,1.41,1.41,0,0,0-.35-.23.78.78,0,0,1-.52-.68c0-.38.29-.63.87-.78a13.32,13.32,0,0,1,3.32-.43c.6,0,.91.32.91,1v.4c0,.29,0,.64,0,1.06v4c0,.2.17.39.52.56a.68.68,0,0,1,.44.63c0,.54-.64,1-1.93,1.26a9.35,9.35,0,0,1-2.18.26,1.21,1.21,0,0,1-.59-.1.48.48,0,0,1-.18-.39c0-.37-.15-.56-.35-.56a.49.49,0,0,0-.2,0l-.55.37a3.4,3.4,0,0,1-2,.62,2.76,2.76,0,0,1-2.44-1,5,5,0,0,1-.61-2.83V98.92a3.4,3.4,0,0,0-.14-1.14,1.11,1.11,0,0,0-.5-.57,2,2,0,0,1-.43-.28.49.49,0,0,1-.1-.3c0-.46.35-.76,1-.92a17.53,17.53,0,0,1,3.54-.39C67.25,95.32,67.43,95.47,67.43,95.78Z"/><path class="cls-2" d="M79.24,95.32c.32,0,.51,0,.58.13a2.37,2.37,0,0,1,.18.87c0,.27.13.4.28.4s.24-.09.34-.26a2.2,2.2,0,0,1,1.89-1.13,1.79,1.79,0,0,1,1.35.54,2,2,0,0,1,.44.67,2.37,2.37,0,0,1,.16.79,2.17,2.17,0,0,1-.2.87,2.23,2.23,0,0,1-.51.74,2,2,0,0,1-1.42.55,1.76,1.76,0,0,1-.78-.16,4,4,0,0,1-.81-.66.52.52,0,0,0-.36-.19.32.32,0,0,0-.32.28A5.39,5.39,0,0,0,80,100a10.55,10.55,0,0,0,.1,1.86.77.77,0,0,0,.17.38,1.77,1.77,0,0,0,.49.21c.54.16.81.44.81.85a.9.9,0,0,1-.26.64,1.25,1.25,0,0,1-.7.36,12.73,12.73,0,0,1-2.54.19,8.29,8.29,0,0,1-2.43-.28.92.92,0,0,1-.74-.87,1,1,0,0,1,.54-.85,1.19,1.19,0,0,0,.36-.31.82.82,0,0,0,.13-.38,20.84,20.84,0,0,0,.15-3.06,1.47,1.47,0,0,0-.09-.58.67.67,0,0,0-.36-.28c-.43-.17-.64-.42-.64-.73a.91.91,0,0,1,.43-.75,5.88,5.88,0,0,1,1.49-.62A8.93,8.93,0,0,1,79.24,95.32Z"/><path class="cls-2" d="M93.05,100.21H88.8q-.27,0-.27.24a1.45,1.45,0,0,0,.63,1.11,2.1,2.1,0,0,0,1.37.52,2.85,2.85,0,0,0,1-.17,3.08,3.08,0,0,0,.88-.41.9.9,0,0,1,.49-.21.6.6,0,0,1,.46.29.9.9,0,0,1,.22.59,1.65,1.65,0,0,1-.81,1.26,5.41,5.41,0,0,1-3.31,1.07,4.68,4.68,0,0,1-3.18-1.1,4.53,4.53,0,0,1-1-1.31,4.59,4.59,0,0,1-.53-2.15,4.35,4.35,0,0,1,.92-2.73,4.85,4.85,0,0,1,2-1.56,5.23,5.23,0,0,1,2-.39,4.48,4.48,0,0,1,2.92,1,4,4,0,0,1,1,1.15,3,3,0,0,1,.43,1.48,1.73,1.73,0,0,1-.24,1A.72.72,0,0,1,93.05,100.21Zm-4-1.69H90c.38,0,.57-.17.57-.53a1.09,1.09,0,0,0-.27-.79,1,1,0,0,0-1.42,0,.57.57,0,0,0-.11.11,1.3,1.3,0,0,0-.27.76.49.49,0,0,0,.13.38A.74.74,0,0,0,89,98.52Z"/><path class="cls-2" d="M99.67,97.1V100a20.76,20.76,0,0,0,.06,2.23.67.67,0,0,0,.43.49,1.41,1.41,0,0,1,.44.27.53.53,0,0,1,.11.36.76.76,0,0,1-.21.54,1.14,1.14,0,0,1-.56.35,8.47,8.47,0,0,1-2.19.2,8.05,8.05,0,0,1-2.44-.26,1.16,1.16,0,0,1-.53-.37.78.78,0,0,1-.21-.52.44.44,0,0,1,.11-.33,1.72,1.72,0,0,1,.49-.28c.24-.1.38-.38.44-.84a28.7,28.7,0,0,0,.14-3.34,19.22,19.22,0,0,0-.12-2.84,1.36,1.36,0,0,0-.64-.94,1.68,1.68,0,0,1-.51-.41.72.72,0,0,1-.14-.47,1,1,0,0,1,.43-.78,4.16,4.16,0,0,1,1.36-.6,12.92,12.92,0,0,1,1.61-.37,10.06,10.06,0,0,1,1.45-.17c.47,0,.71.3.71.88,0,.19,0,.63-.09,1.31C99.73,95.21,99.68,96.2,99.67,97.1Z"/><path class="cls-2" d="M106.42,97.1V100a20.76,20.76,0,0,0,.06,2.23.7.7,0,0,0,.44.49,1.36,1.36,0,0,1,.43.27.48.48,0,0,1,.12.36.81.81,0,0,1-.21.54,1.17,1.17,0,0,1-.57.35,8.44,8.44,0,0,1-2.18.2,8.08,8.08,0,0,1-2.45-.26,1.16,1.16,0,0,1-.53-.37.78.78,0,0,1-.21-.52.44.44,0,0,1,.11-.33,1.6,1.6,0,0,1,.49-.28c.24-.11.38-.39.44-.84a28.7,28.7,0,0,0,.14-3.34,19.22,19.22,0,0,0-.12-2.84,1.41,1.41,0,0,0-.63-.94,1.6,1.6,0,0,1-.52-.41.72.72,0,0,1-.14-.47,1,1,0,0,1,.44-.78,4.2,4.2,0,0,1,1.35-.6,12.92,12.92,0,0,1,1.61-.37,10.06,10.06,0,0,1,1.45-.17c.47,0,.71.3.71.88,0,.19,0,.63-.09,1.31C106.48,95.2,106.43,96.2,106.42,97.1Z"/><path class="cls-2" d="M116.36,100.21h-4.24c-.18,0-.28.08-.28.24a1.47,1.47,0,0,0,.64,1.13,2.13,2.13,0,0,0,1.36.52,3.19,3.19,0,0,0,1-.17,3,3,0,0,0,.87-.41.9.9,0,0,1,.49-.21.59.59,0,0,1,.46.28,1,1,0,0,1,.23.6,1.65,1.65,0,0,1-.82,1.25,5.34,5.34,0,0,1-3.31,1.08,4.73,4.73,0,0,1-3.18-1.1,4.67,4.67,0,0,1-1-1.31A4.59,4.59,0,0,1,108,100a4.41,4.41,0,0,1,.92-2.73,4.85,4.85,0,0,1,2-1.56,5.24,5.24,0,0,1,2-.39,4.53,4.53,0,0,1,2.92,1,4.17,4.17,0,0,1,1,1.16,3.11,3.11,0,0,1,.44,1.48,1.74,1.74,0,0,1-.25,1A.73.73,0,0,1,116.36,100.21Zm-4-1.69h.91c.38,0,.57-.17.57-.53a1.06,1.06,0,0,0-.28-.79,1,1,0,0,0-1.41,0,.57.57,0,0,0-.11.11,1.3,1.3,0,0,0-.27.76.49.49,0,0,0,.13.38A.74.74,0,0,0,112.36,98.52Z"/><path d="M25.36,58.47h4.19v25h8.29v4.18H25.36Z"/><path d="M36.52,58.47H40.7v4.19l-4.18,3Z"/><path d="M44.39,58.47H56.86V62.4h-8.3V71h7.23V74.9H48.57v8.57h8.3v4.18H44.39Zm7.06-7.09h4.41l-5.4,5.78H47.75Z"/><path d="M59.56,58.47h6.28a6.79,6.79,0,0,1,5.4,2.05c1.44,1.52,1.89,3.36,1.89,6.85,0,2.54-.21,4.26-1.19,5.86-1.15,1.88-3,3-6.07,3H63.74V87.65H59.56Zm4.18,13.86h2c3.4,0,3.45-2,3.45-4.91s0-5-3.28-5H63.74Z"/><path d="M76.38,58.47h4.18V87.65H76.38Z"/><path d="M97.89,81.14a6.74,6.74,0,0,1-6.64,6.76c-3.2,0-6.89-1.55-6.89-6.88V65a6.53,6.53,0,0,1,6.81-6.73,6.65,6.65,0,0,1,6.72,7v1.62H93.71V65.44a2.75,2.75,0,0,0-2.58-3c-2.09,0-2.59,1.43-2.59,3.4V80.73c0,1.68.66,3,2.54,3,1.15,0,2.62-.66,2.62-3V79.32h4.18Z"/><path d="M101.29,58.47h12.47V62.4h-8.3V71h7.22V74.9h-7.21v8.57h8.3v4.18H101.29Z"/><path d="M116.46,58.47h6.73c4.95,0,7.37,2.91,7.37,8.57,0,3.36-.94,5.82-3.6,7.29l4.51,13.32H127l-3.9-12.46h-2.5V87.65h-4.18Zm4.18,13H123c2.91,0,3.36-1.63,3.36-4.54s-.49-4.55-3.57-4.55h-2.18Z"/><path d="M134.05,58.47h4.18V87.65h-4.18Z"/><path d="M142.29,58.47h12.47V62.4h-8.3V71h7.21V74.9h-7.2v8.57h8.29v4.18H142.29Z"/><path class="cls-2" d="M28.73,118.67H26.59v-6h2.14c1.56,0,2.33.87,2.33,2.62V116C31.06,117.79,30.28,118.67,28.73,118.67Zm-.92-1h.92a1,1,0,0,0,.85-.38,2.3,2.3,0,0,0,.25-1.21v-.79a2.3,2.3,0,0,0-.25-1.21,1,1,0,0,0-.85-.38h-.92Z"/><path class="cls-2" d="M35.57,116.22v-3.6H36.8v3.59a2.63,2.63,0,0,1-.62,1.9,2.62,2.62,0,0,1-3.41,0,2.6,2.6,0,0,1-.62-1.89v-3.6h1.23v3.6a1.93,1.93,0,0,0,.26,1.13,1,1,0,0,0,.83.38,1,1,0,0,0,.83-.36A1.94,1.94,0,0,0,35.57,116.22Z"/><path class="cls-2" d="M39.83,113.66v-1h4.56v1H42.72v5H41.49v-5Z"/><path class="cls-2" d="M45.14,118.67v-6h3.77v1H46.37V115h2.27v1H46.37v1.57h2.54v1Z"/><path class="cls-2" d="M53.24,116.09l1.25,2.58H53.14l-1.09-2.38h-1v2.38H49.85v-6H52a2.58,2.58,0,0,1,1.67.48,1.68,1.68,0,0,1,.59,1.37A1.61,1.61,0,0,1,53.24,116.09Zm-2.18-2.43v1.6h.82a1.66,1.66,0,0,0,.88-.18.83.83,0,0,0,0-1.23,1.56,1.56,0,0,0-.87-.19Z"/><path class="cls-2" d="M58.73,116.09,60,118.67H58.64l-1.09-2.38h-1v2.38H55.34v-6h2.18a2.54,2.54,0,0,1,1.67.48,1.63,1.63,0,0,1,.6,1.37A1.59,1.59,0,0,1,58.73,116.09Zm-2.18-2.43v1.6h.83a1.65,1.65,0,0,0,.87-.18.83.83,0,0,0,0-1.23,1.63,1.63,0,0,0-.87-.19Z"/><path class="cls-2" d="M60.92,112.62h1.23v6H60.92Z"/><path class="cls-2" d="M63,113.66v-1h4.56v1H65.9v5H64.66v-5Z"/><path class="cls-2" d="M72.69,115.21v.88a2.88,2.88,0,0,1-.61,2,2.48,2.48,0,0,1-3.41,0,2.88,2.88,0,0,1-.61-2v-.88a2.8,2.8,0,0,1,.61-2,2.5,2.5,0,0,1,3.42,0A2.86,2.86,0,0,1,72.69,115.21Zm-3.41,0v.88c0,1.09.37,1.64,1.09,1.64s1.1-.55,1.1-1.64v-.88c0-1.09-.37-1.63-1.1-1.63S69.28,114.12,69.28,115.21Z"/><path class="cls-2" d="M73.88,112.62H75.1v6H73.88Z"/><path class="cls-2" d="M79.87,116.09l1.25,2.58H79.77l-1.08-2.38h-1v2.38H76.46v-6h2.18a2.54,2.54,0,0,1,1.67.48,1.62,1.62,0,0,1,.59,1.37A1.59,1.59,0,0,1,79.87,116.09Zm-2.18-2.43v1.6h.82a1.65,1.65,0,0,0,.87-.18.67.67,0,0,0,.28-.61.68.68,0,0,0-.28-.62,1.56,1.56,0,0,0-.87-.19Z"/><path class="cls-2" d="M82,118.67v-6h3.77v1H83.19V115h2.28v1H83.19v1.57h2.54v1Z"/></g></g></g></g></svg>