<svg width="720" height="985" viewBox="0 0 720 985" fill="none" xmlns="http://www.w3.org/2000/svg">
<g opacity="0.17">
<path d="M715.736 78.31C683.678 79.0764 657.275 65.426 634.224 46.1239C614.456 29.5758 596.58 12.1656 573.62 0C558.32 19.9487 545.324 41.3103 531.826 62.3367C519.217 81.9501 505.149 100.558 491.719 119.668C469.671 150.992 448.033 182.699 421.927 211.365C397.553 238.115 366.339 264.338 325.457 258.878C301.516 255.669 280.654 243.767 258.012 236.702C232.202 228.632 206.209 220.465 178.963 217.544C149.755 214.431 87.5318 228.584 37.8491 242.258C13.4296 304.164 0 371.721 0 442.44C0 741.862 240.205 984.575 536.5 984.575C832.795 984.575 1073 741.862 1073 442.44C1073 375.96 1061.14 312.282 1039.46 253.442C1036.88 246.425 983.12 242.426 931.02 213.952C923.655 209.928 865.172 147.735 857.442 143.592C766.924 95.0018 720.388 78.1663 715.759 78.2861L715.736 78.31Z" fill="#659999"/>
</g>
</svg>
