<svg xmlns="http://www.w3.org/2000/svg" viewBox="0 0 652.74 984.58"><defs><style>.cls-1{opacity:0.17;}.cls-2{fill:#659999;}</style></defs><g id="Calque_2" data-name="Calque 2"><g id="Calque_1-2" data-name="Calque 1"><g class="cls-1"><path class="cls-2" d="M634.22,46.12C614.46,29.58,596.58,12.17,573.62,0c-15.3,20-28.3,41.31-41.79,62.34-12.61,19.61-26.68,38.22-40.11,57.33-22.05,31.32-43.69,63-69.79,91.69-24.38,26.75-55.59,53-96.47,47.52-23.94-3.21-44.81-15.11-67.45-22.18-25.81-8.07-51.8-16.24-79-19.16-29.2-3.11-91.43,11-141.11,24.72A544.4,544.4,0,0,0,0,442.44C0,741.86,240.21,984.58,536.5,984.58a533.32,533.32,0,0,0,116.24-12.77v-912A173.52,173.52,0,0,1,634.22,46.12Z"/></g></g></g></svg>