<svg xmlns="http://www.w3.org/2000/svg" viewBox="0 0 45.29 52.75"><g id="Calque_2" data-name="Calque 2"><g id="Calque_1-2" data-name="Calque 1"><g id="Calque_2-2" data-name="Calque 2"><g id="Calque_1-2-2" data-name="Calque 1-2"><path d="M42.38,50.46a.16.16,0,0,0,0-.09,8.1,8.1,0,0,0,0-3.29c-.1-.92.88-2.22,1-2.49a3.87,3.87,0,0,0,.16-.89l-1.35.6v-.07l-.34.14-1.71.72-.18.07-.25.11-.09,0-.1,0-.13.06-.39.16-.13,0-.08,0-.51.21L38,46l-.9.38-.42.17-.25.09-.11,0-.5.17L35.4,47l-.21.07-.56.14-.2,0-.6.12-.27,0c-.35,0-.7.1-1.05.13l-.64,0-.48,0c-.33,0-.67,0-1,0h-.89l-.87,0h-.25l-.64,0-1.22-.09-.59,0-.09,0-.41,0-.11,0-.56.15-.7,0-.48,0H23.3l-.44,0H22.2l0,0h-2.7l-.06,0H17.59l-2.64,0,0,0h-.7c-.48,0-1,0-1.44,0l-.09,0h-.28l-.05,0-.68-.06c-.25,0-.49,0-.73-.08l-.47-.07-1-.15a23.22,23.22,0,0,0-3.32-.35H5.86l-.33.08h-.2L5,46.5a4.27,4.27,0,0,0-1.32.28.77.77,0,0,0-.25.14.93.93,0,0,0-.14.14,7.27,7.27,0,0,1-.68.79,1.12,1.12,0,0,1-.2.18l-.15.06a5,5,0,0,1-.78.44c-.51,1.4-1,2.81-1.45,4.22H42.26A14.59,14.59,0,0,0,42.38,50.46Z"/><path d="M43.21,1.46A5,5,0,0,0,40.83.17,6.42,6.42,0,0,0,40,.05c-1-.16-2.49,0-2.92.85-.05.12.09.22.19.2L37.44,1c-.13.3.06.57.26,1a10.84,10.84,0,0,0,1.13,1.31,3.57,3.57,0,0,1,.31.37c.18.33.33.6.42.78l.56,1.21c.2.6.33,1.24.47,1.8,1.14,5.1.07,8.74-2.62,12.63-1.27,1.83-2.64,3.59-4.08,5.32a22.82,22.82,0,0,0-3.16,4.08c-2.51-1-5.38-1.15-7.86-2-.78-.26-2.7-2.05-3.68-1.87a1,1,0,0,0-.78,0c-.14-.12-.36,0-.33.15l.06.17a1,1,0,0,0-.07.15s.05.09.09,0h0a3.85,3.85,0,0,0,1.09,1.61c-4.45-.2-8.8,6-10.75,8.43a45.19,45.19,0,0,0-5.6,9.09,3.43,3.43,0,0,1,.44-.19L3.63,45h0l.6-.13h0c.26,0,.53-.06.79-.07H6.09c.21,0,.42,0,.62,0l.57,0h0l.09,0h0l0,0,.32,0,.3,0,.05,0c.71.09,1.42.21,2.14.32l.06,0h0l.36,0,.36.06.24,0,.64.07.58-.07.1,0H13l.07,0c.46,0,.94,0,1.4,0H19.1a3.85,3.85,0,0,0,.48,0h0c.28,0,.57,0,.86,0h2.32l.39,0h.37l1.5.1h0l.92.07c.79,0,1.58.11,2.38.15h0l.62,0h1.84a2.57,2.57,0,0,0,.48,0h.3l.61-.05c.47,0,.94-.13,1.4-.22h0a9.85,9.85,0,0,0,1.07-.27l.06,0h0l.16,0,.33-.11.4-.14,0,0h0l.13-.06.28-.1.1,0h0l.11,0,.24-.11h0l1-.42.37-.16.52-.23h0l.16-.07.29-.11h0c.08,0,.2-.06.27-.09h0c.1,0,.1,0,.28-.08h0a2.82,2.82,0,0,1,.25-.14h0c.17-.07.34-.17.51-.25h0c.31,0,.35-.13.73-.3h0l.29-.13h0l1-.44h0l.48-.2a9.43,9.43,0,0,0-1.6-2.56c-1-1.29-2.15-2.59-3.4-3.88h0a66.85,66.85,0,0,0,2.62-8.14,51.47,51.47,0,0,0,3.7-9A27.3,27.3,0,0,0,44,2,.82.82,0,0,0,43.21,1.46Z"/></g></g></g></g></svg>