<svg xmlns="http://www.w3.org/2000/svg" viewBox="0 0 49.72 143.22"><g id="Calque_2" data-name="Calque 2"><g id="Calque_1-2" data-name="Calque 1"><path d="M45.68,40l-.25.26h0L44.14,41.6l0,0h0l-.13.14h0l-.19.2h0l-.07.07,0,0h0l-.07.08a.94.94,0,0,0-.1.1h0l-.29.3-.1.1h0l-.06.07,0,0h0l-.38.4h0l0,0h0l-.18.19h0c-.22.24-.45.48-.68.71l-.32.32-.19.19-.08.07-.39.36-.31.27-.17.15-.45.35-.17.11h0l-.51.35-.23.14c-.3.19-.6.37-.91.54l0,0-.57.29h0l-.43.21c-.3.15-.61.28-.92.42l-.83.34-.81.32-.23.09-.6.22-1.16.4-.55.2-.1,0h0l-.39.14-.12,0h0L31,49.8h0l-.66.24-.45.17h0l-.25.1-.41.16h0l-.29.12h0l-.17.07h0l-.15.06h0l-.05,0h0l-.49.21-.16.06-.65.28h0l-.16.07h0l-.42.18h0l-.25.11h0l-.35.15-.07,0-.85.37-.81.35-2.41,1.06-.06,0-.64.28c-.44.19-.89.37-1.34.54h0l-.09,0-.27.1-.05,0-.65.22h0c-.23.08-.46.15-.7.21l-.46.13-.93.23h0a24.5,24.5,0,0,0-3.19,1h0l-.3.12L13,56.6l-.19.08-.32.16a4.3,4.3,0,0,0-1.1.78.65.65,0,0,0-.17.23h0a1.42,1.42,0,0,0-.08.18v0a7.07,7.07,0,0,1-.3,1,1.08,1.08,0,0,1-.12.24s-.08.07-.11.12a5.31,5.31,0,0,1-.54.71l0,0a121.41,121.41,0,0,0,1.55,13.67c1.17,6.86.25,20.29.3,20.25-.3,3-.68,6.08-1,9.17C9.74,113,8.36,122.35,5.23,131.57a10.67,10.67,0,0,0-1.37,1.72,14.4,14.4,0,0,0-1,1.37C.42,136.55-.38,140,.16,142.93a.27.27,0,0,0,.26.23l.51,0a.46.46,0,0,0,.44.05l.31-.15a.48.48,0,0,0,.24,0l.4-.2h0a3.61,3.61,0,0,0,1.32-.64C14.13,137.05,24.24,129.78,31,121c3.71-4.82,5.61-10.69,6.78-16.54A80.12,80.12,0,0,0,39,95c.24-3.22,1.78-17.09,3.19-20.46,1.57-3.74,3.67-7.28,5.1-11.07,2-5.16,3.81-12.18,1.1-17.86a.14.14,0,0,0,0-.09,8.28,8.28,0,0,0-1.35-3c-.46-.81-.08-2.39-.11-2.67a4,4,0,0,0-.21-.88l-1,1.09ZM.55,141.37a11.34,11.34,0,0,0,.14,1.32.76.76,0,0,1-.1-.33A6.56,6.56,0,0,1,.55,141.37Z"/><path d="M29.69.32A4.79,4.79,0,0,0,27,.08a5.65,5.65,0,0,0-.86.24c-1,.26-2.28,1-2.34,1.94,0,.13.17.16.25.1a1.29,1.29,0,0,0,.17-.16c0,.33.28.5.63.8a11,11,0,0,0,1.56.75,3.48,3.48,0,0,1,.43.22c.29.23.54.42.69.55l1,.89c.42.47.79,1,1.14,1.46,3.08,4.23,3.54,8,2.62,12.63-.44,2.19-1,4.35-1.63,6.5a22.38,22.38,0,0,0-1.28,5c-2.71.07-5.4,1.09-8,1.32-.82.07-3.29-.81-4.12-.25a.92.92,0,0,0-.71.32c-.18-.06-.35.1-.24.26l.12.14a.92.92,0,0,0,0,.16s.08.06.09,0,0,0,0,0A3.87,3.87,0,0,0,18.16,34C14,35.58,12.47,43,11.65,46a45.27,45.27,0,0,0-1.53,10.57,3.61,3.61,0,0,1,.33-.35l.23-.19h0l.5-.35h0a6.8,6.8,0,0,1,.7-.38l.38-.18.6-.25c.19-.08.39-.15.58-.21l.54-.19h0l.1,0h0s0,0,.06,0l.3-.09.3-.08h.05c.69-.2,1.39-.38,2.09-.56l.07,0h0l.35-.1.35-.09.23-.07.61-.19L19,53l.11,0,.38-.15.08,0c.43-.17.86-.37,1.28-.56l.6-.26.17-.08,1.49-.64,2-.88a4.09,4.09,0,0,0,.44-.2h0c.26-.1.52-.23.79-.34h0l.31-.14.31-.14.31-.13h0l.38-.16h0l.42-.17h0l.4-.17.37-.13h0l.35-.14h0l1.41-.51h0l.87-.3c.75-.26,1.5-.52,2.25-.8h0l0,0,.58-.22.22-.09.45-.18.23-.1.54-.24.12-.05h0l.13-.06h0a4.25,4.25,0,0,0,.43-.21h0l.18-.09.09-.05.54-.29c.41-.23.81-.49,1.2-.76h0c.3-.21.59-.43.87-.67l.07,0,0,0,.13-.11.26-.23.31-.29.05,0,0,0,.1-.1.21-.21.08-.08,0,0,.08-.08.18-.2,0,0,.73-.77.27-.3.39-.41h0v0h0l.12-.13c.07-.07.14-.15.22-.22h0c.06-.07.16-.13.22-.19h0c.07-.07.1,0,.22-.18l0,0h0l0,0s.11-.16.17-.23h0c.13-.13.25-.29.37-.43l0,0c.3-.09.27-.26.55-.57h0l0,0h0l0,0h0s0,0,0,0h0c.08-.08.21-.23.22-.23h0l0,0h0l.78-.82h0s.24-.26.36-.38a9.68,9.68,0,0,0-2.49-1.71c-1.46-.77-3-1.52-4.66-2.21,0,0,0,0,0,0S38,28,37.41,25.5a50.92,50.92,0,0,0-.18-9.73A27.24,27.24,0,0,0,30.65.52.82.82,0,0,0,29.69.32Z"/></g></g></svg>