<?xml version="1.0" encoding="utf-8"?>
<!-- Generator: Adobe Illustrator 25.4.1, SVG Export Plug-In . SVG Version: 6.00 Build 0)  -->
<svg version="1.1" id="Calque_1" xmlns="http://www.w3.org/2000/svg" xmlns:xlink="http://www.w3.org/1999/xlink" x="0px" y="0px"
	 viewBox="0 0 45.3 52.8" style="enable-background:new 0 0 45.3 52.8;" xml:space="preserve">
<style type="text/css">
	.st0{fill:#659899;}
</style>
<g id="Calque_2_00000039129213786079959360000003437699174377134214_">
	<g id="Calque_1-2">
		<g id="Calque_2-2">
			<g id="Calque_1-2-2">
				<path class="st0" d="M42.4,50.5C42.4,50.4,42.4,50.4,42.4,50.5c0.2-1.2,0.2-2.3,0-3.4c-0.1-0.9,0.9-2.2,1-2.5
					c0.1-0.3,0.1-0.6,0.2-0.9l-1.3,0.6v-0.1l-0.3,0.1l-1.7,0.7L40,45.2l-0.2,0.1h-0.1h-0.1l-0.1,0.1L39,45.5h-0.1h-0.1l-0.5,0.2
					L38,46l-0.9,0.4l-0.4,0.2l-0.2,0.1h-0.1l-0.5,0.2L35.4,47l-0.2,0.1l-0.6,0.1h-0.2l-0.6,0.1h-0.3c-0.3,0-0.7,0.1-1,0.1h-0.6h-0.5
					c-0.3,0-0.7,0-1,0h-0.9h-0.9h-0.2h-0.6l-1.2-0.1h-0.6h-0.1h-0.4h-0.1l-0.6,0.2h-0.7h-0.5h-0.3h-0.4h-0.7l0,0h-2.7h-0.1h-1.9
					h-2.6l0,0h-0.7c-0.5,0-1,0-1.4,0h-0.1h-0.3h-0.1l-0.7-0.1c-0.2,0-0.5,0-0.7-0.1l-0.5-0.1l-1-0.2c-1.1-0.2-2.2-0.3-3.3-0.3H5.9
					l-0.3,0.1H5.3L5,46.5c-0.5,0-0.9,0.1-1.3,0.3c-0.1,0-0.2,0.1-0.2,0.1c-0.1,0-0.1,0.1-0.1,0.1c-0.2,0.3-0.4,0.5-0.7,0.8
					C2.6,47.9,2.5,48,2.4,48l-0.2,0.1c-0.2,0.2-0.5,0.3-0.8,0.4c-0.5,1.4-1,2.8-1.5,4.2h42.2C42.4,52,42.4,51.2,42.4,50.5z"/>
				<path class="st0" d="M43.2,1.5c-0.7-0.6-1.5-1.1-2.4-1.3c-0.3-0.1-0.6-0.1-0.8-0.1c-1-0.2-2.5,0-2.9,0.9c0,0.1,0.1,0.2,0.2,0.2
					L37.4,1c-0.1,0.3,0.1,0.6,0.3,1c0.3,0.5,0.7,0.9,1.1,1.3c0.1,0.1,0.2,0.2,0.3,0.4c0.2,0.3,0.3,0.6,0.4,0.8l0.6,1.2
					c0.2,0.6,0.3,1.2,0.5,1.8c1.1,5.1,0.1,8.7-2.6,12.6c-1.3,1.8-2.6,3.6-4.1,5.3c-1.2,1.2-2.3,2.6-3.2,4.1c-2.5-1-5.4-1.1-7.9-2
					c-0.8-0.3-2.7-2-3.7-1.9c-0.2-0.1-0.5-0.1-0.8,0c-0.1-0.1-0.4,0-0.3,0.1l0.1,0.2c0,0-0.1,0.1-0.1,0.1c0,0,0,0.1,0.1,0l0,0
					c0.2,0.6,0.6,1.2,1.1,1.6c-4.4-0.2-8.8,6-10.8,8.4c-2.2,2.8-4.1,5.8-5.6,9.1C3,45.2,3.2,45.1,3.3,45l0.3,0l0,0l0.6-0.1l0,0
					c0.3,0,0.5-0.1,0.8-0.1h1.1c0.2,0,0.4,0,0.6,0h0.6l0,0h0.1l0,0l0,0h0.3H8H8c0.7,0.1,1.4,0.2,2.1,0.3h0.1l0,0h0.4l0.4,0.1h0.2
					l0.6,0.1l0.6-0.1h0.1H13h0.1c0.5,0,0.9,0,1.4,0h4.6c0.2,0,0.3,0,0.5,0l0,0c0.3,0,0.6,0,0.9,0h2.3h0.4h0.4l1.5,0.1l0,0l0.9,0.1
					c0.8,0,1.6,0.1,2.4,0.2l0,0h0.6h1.8c0.2,0,0.3,0,0.5,0h0.3l0.6,0c0.5,0,0.9-0.1,1.4-0.2l0,0c0.4-0.1,0.7-0.2,1.1-0.3h0.1l0,0
					h0.2l0.3-0.1l0.4-0.1l0,0l0,0l0.1-0.1l0.3-0.1h0.1l0,0h0.1l0.2-0.1l0,0l1-0.4l0.4-0.2l0.5-0.2l0,0l0.2-0.1l0.3-0.1l0,0
					c0.1,0,0.2-0.1,0.3-0.1l0,0c0.1,0,0.1,0,0.3-0.1l0,0c0.1-0.1,0.2-0.1,0.2-0.1l0,0c0.2-0.1,0.3-0.2,0.5-0.2l0,0
					c0.3,0,0.3-0.1,0.7-0.3l0,0l0.3-0.1l0,0l1-0.4l0,0l0.5-0.2c-0.4-0.9-0.9-1.8-1.6-2.6c-1-1.3-2.2-2.6-3.4-3.9l0,0
					c1-2.7,1.9-5.4,2.6-8.1c1.5-2.9,2.8-5.9,3.7-9C45.6,13,45.6,7.3,44,2C43.9,1.7,43.6,1.5,43.2,1.5z"/>
			</g>
		</g>
	</g>
</g>
</svg>
